<?xml version="1.0" standalone="no"?>
<!DOCTYPE svg PUBLIC "-//W3C//DTD SVG 20010904//EN"
 "http://www.w3.org/TR/2001/REC-SVG-20010904/DTD/svg10.dtd">
<svg version="1.0" xmlns="http://www.w3.org/2000/svg"
 width="3840.000000pt" height="3840.000000pt" viewBox="0 0 3840.000000 3840.000000"
 preserveAspectRatio="xMidYMid meet">
<metadata>
Created by potrace 1.14, written by Peter Selinger 2001-2017
</metadata>
<g transform="translate(0.000000,3840.000000) scale(0.100000,-0.100000)"
fill="#000000" stroke="none">
<path d="M95 38386 c-41 -18 -83 -69 -90 -109 -3 -18 -4 -8614 -3 -19104 l3
-19072 21 -27 c11 -15 33 -37 48 -48 l27 -21 19093 -3 19093 -2 33 22 c18 13
43 36 54 51 l21 28 3 19082 c2 17039 1 19086 -13 19122 -9 25 -29 50 -52 65
l-37 25 -19085 2 c-15854 2 -19091 0 -19116 -11z m14480 -2349 c-8 -24 -164
-663 -168 -687 -3 -14 -8 -45 -12 -70 -4 -25 -10 -54 -13 -65 -3 -11 -7 -212
-9 -446 l-4 -425 76 -305 c42 -167 78 -308 79 -314 1 -5 6 -26 10 -45 4 -19
23 -62 41 -95 18 -33 54 -100 80 -150 27 -49 58 -108 70 -130 12 -22 45 -83
73 -135 28 -52 85 -137 126 -188 40 -51 84 -107 97 -124 13 -17 29 -36 34 -42
6 -6 50 -60 100 -121 113 -140 307 -365 332 -385 252 -203 419 -333 456 -354
26 -14 68 -38 95 -53 43 -24 195 -110 326 -184 176 -100 268 -144 392 -188 76
-27 209 -74 294 -104 164 -58 206 -69 370 -92 24 -4 47 -8 50 -10 3 -1 25 -6
50 -9 25 -3 56 -8 70 -10 14 -3 111 -19 215 -36 l190 -32 730 0 c402 0 744 2
760 5 17 3 55 9 85 12 30 4 64 9 75 11 11 2 40 6 65 10 91 11 270 35 288 39
10 1 45 6 77 10 33 3 85 10 115 15 30 5 78 12 105 15 95 12 113 16 291 71 99
31 184 57 189 58 93 20 245 86 548 237 315 158 383 196 573 324 119 80 218
145 220 145 9 0 88 64 144 117 30 28 66 61 80 73 14 12 74 67 135 123 60 56
134 125 165 153 109 101 129 121 271 284 142 163 199 233 199 245 0 3 10 21
23 38 12 18 27 40 32 49 15 27 183 286 229 353 36 53 176 321 322 615 28 56
59 142 76 210 84 327 156 632 162 687 4 35 8 68 11 75 11 37 17 148 19 368 2
244 -5 312 -43 432 -7 20 -5 28 5 32 8 3 1841 5 4074 5 3830 0 4060 -1 4061
-17 0 -9 2 -26 4 -36 15 -82 20 -254 20 -741 0 -489 -3 -604 -21 -750 -2 -16
-6 -64 -9 -105 -3 -41 -8 -86 -10 -100 -3 -14 -7 -56 -11 -95 -3 -38 -7 -76
-9 -85 -2 -8 -6 -58 -10 -110 -5 -60 -26 -170 -61 -308 -30 -117 -56 -223 -59
-235 -46 -209 -129 -498 -205 -712 -51 -143 -105 -299 -121 -346 -15 -47 -32
-97 -38 -110 -5 -13 -22 -58 -37 -99 -14 -41 -40 -103 -55 -138 -16 -35 -29
-65 -29 -67 0 -2 -16 -38 -35 -79 -19 -42 -52 -118 -74 -168 -97 -229 -137
-311 -272 -539 -78 -134 -152 -262 -163 -284 -12 -22 -23 -42 -26 -45 -3 -3
-11 -16 -19 -30 -155 -273 -305 -517 -331 -540 -3 -3 -105 -138 -227 -300
-121 -163 -267 -352 -323 -420 -56 -69 -119 -145 -139 -169 -20 -25 -70 -86
-111 -135 -42 -50 -116 -140 -165 -201 -49 -60 -162 -182 -250 -271 -166 -167
-190 -193 -290 -309 -158 -184 -178 -204 -454 -450 -25 -22 -64 -57 -86 -78
-32 -31 -157 -126 -320 -243 -11 -8 -49 -35 -85 -61 -36 -26 -117 -84 -180
-130 -133 -95 -144 -104 -219 -159 -31 -22 -128 -93 -216 -157 -88 -64 -239
-175 -335 -245 -141 -103 -587 -399 -733 -486 -34 -20 -218 -118 -482 -256
-88 -46 -223 -117 -300 -157 -174 -91 -388 -196 -660 -323 -44 -21 -149 -69
-232 -109 -84 -39 -158 -71 -163 -71 -6 0 -18 -4 -28 -9 -9 -5 -44 -19 -77
-31 -33 -12 -73 -28 -90 -35 -16 -6 -46 -18 -65 -25 -19 -6 -44 -16 -55 -20
-11 -5 -94 -37 -185 -71 -91 -34 -289 -109 -440 -166 -151 -57 -320 -117 -375
-133 -55 -16 -120 -35 -145 -43 -25 -7 -48 -14 -53 -15 -8 -1 -89 -23 -187
-52 -108 -31 -281 -81 -350 -100 -36 -10 -137 -39 -225 -64 -136 -39 -321 -81
-440 -102 -16 -2 -109 -21 -205 -40 -96 -20 -184 -38 -195 -40 -93 -18 -184
-36 -205 -40 -14 -2 -54 -11 -90 -19 -75 -16 -105 -21 -179 -30 -30 -4 -63 -9
-75 -11 -12 -2 -43 -6 -71 -9 -27 -3 -66 -7 -85 -10 -19 -3 -59 -7 -88 -11
-29 -3 -62 -7 -72 -9 -10 -2 -47 -6 -82 -10 -35 -3 -75 -8 -90 -11 -16 -2 -40
-6 -55 -8 -16 -3 -53 -7 -83 -10 -30 -4 -73 -9 -95 -12 -22 -3 -56 -7 -75 -9
-19 -2 -53 -6 -75 -9 -41 -5 -130 -13 -245 -21 -36 -3 -90 -7 -120 -9 -30 -3
-95 -8 -145 -12 -115 -9 -2888 -9 -2975 0 -36 4 -81 9 -100 11 -19 2 -71 7
-115 10 -44 4 -91 8 -105 10 -14 2 -56 6 -95 10 -38 3 -92 8 -120 10 -63 7
-131 13 -215 21 -74 6 -105 11 -175 24 -96 19 -216 41 -243 46 -22 4 -145 26
-212 39 -89 17 -242 44 -270 49 -19 3 -46 8 -60 11 -14 3 -38 8 -55 11 -16 3
-61 11 -100 19 -38 8 -86 16 -105 19 -33 6 -102 23 -230 60 -30 9 -97 27 -147
41 -51 14 -135 36 -185 50 -51 14 -115 32 -143 39 -363 102 -821 230 -861 241
-42 11 -699 273 -839 335 -22 10 -66 27 -99 39 -32 12 -77 30 -100 40 -22 10
-77 33 -121 50 -44 18 -138 63 -210 100 -71 38 -193 101 -270 141 -77 40 -189
99 -250 130 -159 83 -342 179 -400 209 -27 15 -70 39 -95 55 -120 78 -226 147
-240 156 -8 5 -67 43 -130 84 -277 179 -391 257 -651 443 -249 179 -330 243
-448 353 -33 31 -206 189 -235 215 -6 6 -34 30 -61 55 -28 25 -79 70 -114 100
-35 30 -73 64 -85 75 -13 11 -51 45 -87 76 -90 80 -101 91 -219 219 -58 63
-116 127 -130 141 -14 14 -66 70 -116 125 -51 54 -107 115 -125 135 -64 68
-89 99 -89 108 0 5 -4 11 -8 13 -7 3 -57 68 -127 168 -11 16 -81 111 -155 211
-140 189 -228 315 -471 674 -79 116 -145 212 -148 215 -8 6 -102 149 -116 175
-7 11 -44 83 -85 160 -40 77 -87 167 -105 200 -42 77 -170 324 -203 389 -14
28 -36 68 -49 89 -13 20 -20 37 -17 37 4 0 2 6 -4 13 -6 6 -31 84 -57 172 -26
88 -65 221 -87 295 -22 74 -43 149 -48 165 -5 17 -13 46 -19 65 -10 31 -55
233 -68 300 -2 14 -10 53 -18 88 -8 34 -17 77 -20 95 -3 17 -8 39 -10 47 -2 8
-6 26 -9 40 -10 56 -47 233 -75 365 -16 77 -35 178 -41 225 -6 47 -13 96 -15
109 -3 14 -8 52 -12 85 -10 79 -10 1740 0 1786 8 36 22 118 31 182 3 21 10 57
15 80 5 24 12 65 16 92 3 27 8 52 10 56 2 3 6 24 9 46 2 21 7 50 10 64 3 14 8
41 11 60 2 19 7 47 10 63 10 52 15 83 34 192 27 151 121 528 135 537 6 4 1897
7 4203 7 3317 1 4191 -2 4188 -12z m1776 -35 c-14 -40 -16 -90 -15 -327 1
-277 2 -297 29 -365 7 -19 25 -66 38 -105 100 -282 106 -294 240 -495 81 -122
155 -220 197 -262 58 -59 66 -71 65 -102 -1 -19 1 -39 4 -44 3 -5 44 -28 91
-52 47 -24 173 -103 280 -174 107 -72 200 -131 205 -132 26 -5 194 -58 222
-70 17 -8 36 -14 41 -14 6 0 75 -20 154 -44 79 -25 157 -47 173 -49 17 -3 48
-8 70 -12 22 -3 64 -10 94 -15 30 -6 196 -10 370 -10 l315 0 195 40 c108 21
210 41 226 44 156 27 238 52 406 122 101 42 218 90 259 107 41 17 183 98 315
181 l239 151 226 225 c220 219 256 263 345 418 6 10 29 47 52 84 26 41 51 99
67 155 41 148 98 356 102 378 3 11 5 109 6 217 l1 198 699 0 699 0 -1 -188
c-1 -143 -6 -210 -21 -282 -11 -52 -22 -108 -25 -125 -12 -75 -45 -254 -54
-295 -5 -25 -12 -61 -15 -80 -12 -73 -30 -114 -198 -447 l-172 -342 -120 -142
c-66 -78 -131 -155 -145 -170 -14 -16 -65 -77 -115 -137 -82 -99 -114 -127
-375 -328 -292 -225 -289 -223 -565 -354 -55 -26 -156 -75 -225 -108 -115 -55
-210 -101 -427 -203 -70 -33 -217 -74 -383 -105 -13 -3 -63 -14 -110 -25 -47
-12 -96 -23 -110 -25 -14 -3 -54 -12 -90 -20 -36 -9 -74 -17 -85 -20 -11 -2
-33 -7 -50 -10 -34 -8 -55 -10 -175 -19 -47 -3 -98 -8 -115 -10 -145 -20 -826
-28 -955 -11 -30 4 -69 9 -86 11 -16 2 -59 7 -95 10 -35 4 -75 8 -89 11 -14 2
-54 6 -90 10 -36 3 -76 7 -90 9 -14 2 -52 7 -85 10 -119 12 -144 18 -395 102
-252 84 -309 109 -564 249 -43 24 -80 44 -82 44 -2 0 -46 23 -97 52 -74 41
-515 378 -537 409 -5 7 -117 134 -158 178 -13 15 -47 53 -75 85 -29 33 -64 73
-79 90 -15 16 -77 130 -138 252 -89 177 -119 249 -151 360 -22 77 -63 216 -91
309 -89 304 -84 274 -83 540 l1 240 68 230 c37 127 70 233 72 237 3 4 225 7
493 7 l489 -1 -17 -46z m19610 -4725 l41 -43 -1 -4154 c-1 -4005 -1 -4891 1
-8500 1 -1496 -6 -2925 -17 -3422 -3 -172 -10 -295 -20 -373 -2 -16 -7 -57
-10 -90 -4 -33 -13 -103 -22 -155 -8 -52 -16 -106 -18 -120 -6 -40 -22 -117
-45 -220 -12 -52 -23 -103 -25 -112 -40 -194 -197 -638 -321 -910 -83 -180
-245 -486 -311 -583 -7 -11 -54 -83 -105 -160 -220 -338 -451 -621 -747 -915
-271 -271 -530 -483 -836 -687 -128 -85 -343 -218 -379 -234 -11 -5 -37 -19
-56 -31 -40 -24 -425 -218 -433 -218 -3 0 -35 -14 -71 -30 -87 -41 -367 -149
-496 -193 -118 -40 -331 -106 -358 -112 -9 -1 -44 -10 -77 -19 -85 -23 -77
-22 -220 -54 -71 -17 -150 -33 -175 -37 -24 -4 -47 -8 -50 -10 -3 -2 -26 -6
-50 -10 -25 -3 -63 -10 -85 -15 -22 -5 -65 -12 -95 -15 -30 -4 -57 -8 -60 -10
-3 -2 -34 -6 -70 -9 -36 -4 -76 -8 -90 -11 -33 -5 -98 -12 -190 -20 -41 -4
-91 -8 -110 -10 -314 -31 -991 -26 -1415 10 -206 17 -186 15 -310 30 -27 3
-69 8 -92 10 -23 2 -80 11 -125 21 -46 9 -92 17 -103 19 -88 15 -387 89 -535
132 -172 50 -208 62 -350 111 -276 95 -524 199 -795 334 -88 44 -164 83 -170
88 -5 4 -35 21 -65 37 -429 234 -906 598 -1300 993 -105 105 -142 144 -251
266 -217 242 -502 651 -681 979 -124 227 -287 595 -350 790 -36 111 -155 603
-199 820 -11 55 -22 109 -25 120 -17 81 -71 434 -80 525 -3 30 -7 69 -9 85
-19 133 -26 562 -12 725 6 76 20 205 32 285 2 17 7 57 10 90 4 33 8 67 10 75
2 8 7 40 10 70 3 30 10 80 15 110 5 30 12 75 14 100 12 106 108 599 121 619 2
4 6 19 9 33 18 102 126 431 193 587 25 58 69 153 98 211 29 58 86 173 126 255
40 83 106 209 147 280 70 123 279 445 319 492 10 12 27 34 38 49 37 51 199
250 265 325 116 133 422 432 575 563 124 106 392 316 482 376 12 8 61 42 110
75 48 33 111 76 138 96 68 50 136 83 268 130 276 99 352 163 347 288 -6 146
-3 168 29 225 52 90 136 154 314 239 54 26 100 47 102 47 2 0 48 20 102 46
l97 45 86 -45 c244 -127 426 -139 620 -38 110 56 119 82 124 333 3 150 6 182
25 231 26 67 87 127 152 148 24 8 68 33 98 55 57 42 157 105 166 105 3 0 24 9
48 20 129 60 312 64 496 11 130 -38 203 -39 281 -4 120 53 200 181 200 319 0
46 -26 141 -46 164 -10 12 -10 23 1 53 59 170 271 353 455 392 59 13 155 8
206 -11 76 -27 232 -24 307 5 92 36 156 94 199 181 47 94 55 177 26 266 -27
83 -20 176 17 239 39 68 83 113 214 223 64 53 136 116 160 139 31 31 52 43 75
44 17 0 45 2 61 4 17 1 93 6 170 9 208 9 295 36 377 117 74 74 90 115 83 207
-20 251 -11 371 35 462 23 45 92 117 148 153 25 16 49 42 57 60 7 18 30 49 50
70 65 67 133 92 313 113 188 21 266 47 330 108 67 63 65 48 58 386 -3 121 15
234 48 306 26 57 118 157 156 169 11 3 21 20 25 43 18 99 82 185 172 230 21
11 97 39 168 62 178 58 261 100 303 151 38 47 50 133 51 377 1 122 3 228 6
235 2 6 6 30 9 52 10 77 44 154 101 229 19 25 33 46 30 46 -10 0 29 86 57 126
42 59 105 103 263 185 77 40 159 85 181 100 116 79 169 218 119 312 -89 169
-68 423 53 637 20 36 39 70 41 75 4 11 119 164 135 181 6 5 33 21 59 34 69 35
123 97 143 166 16 56 20 179 9 269 -2 22 -7 101 -10 175 -5 120 -3 142 16 195
11 33 29 71 38 85 10 14 21 38 25 55 11 46 71 159 115 218 53 71 62 81 225
247 78 80 159 166 180 193 21 26 40 47 43 47 2 0 22 -19 44 -43z m-16396
-9801 c208 -12 293 -18 325 -21 31 -2 71 -6 245 -20 60 -5 150 -15 185 -20 45
-6 104 -15 150 -20 49 -7 173 -28 259 -45 30 -5 102 -17 160 -26 58 -8 140
-22 181 -31 41 -8 83 -17 93 -18 9 -2 45 -11 80 -20 34 -9 71 -18 82 -21 11
-2 63 -18 115 -35 52 -17 102 -32 110 -34 17 -4 219 -80 265 -100 403 -173
769 -356 963 -481 45 -30 85 -54 88 -54 3 0 10 -5 17 -10 7 -6 61 -46 121 -88
91 -64 353 -269 392 -306 6 -6 40 -36 75 -66 195 -169 543 -522 570 -578 31
-62 23 -133 -22 -206 -28 -48 -191 -220 -305 -323 -17 -15 -79 -72 -137 -126
-57 -54 -115 -107 -128 -118 -13 -11 -82 -75 -153 -142 -72 -68 -158 -148
-190 -178 -33 -29 -72 -65 -86 -79 -14 -14 -75 -70 -135 -126 -122 -112 -127
-117 -245 -224 -45 -41 -92 -84 -104 -95 -12 -11 -57 -51 -100 -90 -44 -38
-103 -92 -133 -120 -92 -84 -137 -100 -214 -73 -64 21 -124 71 -284 232 -88
89 -189 186 -225 215 -36 29 -74 60 -85 69 -11 9 -81 57 -156 108 -223 150
-478 298 -590 343 -57 23 -113 46 -124 50 -66 28 -302 100 -377 115 -12 3 -67
14 -120 25 -53 11 -118 23 -145 26 -26 3 -75 8 -108 12 -117 15 -800 6 -890
-11 -11 -2 -46 -7 -78 -10 -53 -6 -184 -29 -232 -40 -11 -2 -42 -10 -70 -16
-27 -6 -59 -13 -69 -16 -93 -19 -389 -124 -523 -185 -168 -77 -606 -402 -786
-584 -98 -98 -102 -102 -164 -185 -115 -154 -360 -603 -462 -845 -33 -79 -117
-367 -135 -465 -3 -14 -12 -61 -20 -105 -27 -137 -34 -176 -42 -240 -3 -27 -7
-61 -9 -75 -13 -96 -19 -220 -19 -375 0 -158 4 -225 19 -350 2 -16 7 -50 10
-75 3 -25 10 -70 15 -100 5 -30 12 -68 15 -85 6 -34 7 -43 29 -145 9 -41 25
-111 36 -155 12 -44 23 -87 25 -95 12 -50 74 -232 112 -330 82 -212 240 -506
381 -710 171 -248 421 -486 602 -574 23 -11 50 -27 125 -77 321 -214 611 -339
870 -375 34 -5 91 -16 210 -40 46 -9 119 -23 210 -39 17 -2 59 -7 95 -11 36
-3 81 -8 100 -10 44 -5 379 -5 444 1 45 3 117 12 176 20 14 2 45 7 70 10 38 6
75 13 200 40 8 1 33 8 56 14 22 6 81 18 130 26 246 43 496 146 784 323 91 57
290 191 308 209 7 7 16 13 20 13 4 0 19 10 34 23 15 12 59 45 99 72 164 116
218 164 295 267 125 165 168 204 235 215 43 6 174 -81 373 -249 118 -99 130
-110 358 -330 106 -102 207 -199 224 -214 44 -41 193 -175 218 -197 23 -20
141 -126 186 -167 38 -34 82 -74 169 -150 41 -36 82 -72 91 -80 9 -8 34 -31
56 -50 76 -68 229 -205 272 -245 43 -39 44 -41 37 -89 -18 -140 -82 -232 -305
-436 -57 -52 -119 -113 -139 -134 -187 -203 -385 -365 -711 -581 -58 -39 -106
-73 -108 -77 -2 -5 -8 -8 -13 -8 -5 0 -56 -31 -113 -70 -57 -38 -126 -81 -152
-94 -65 -32 -247 -118 -309 -146 -27 -13 -78 -36 -113 -51 -34 -16 -65 -29
-68 -29 -3 0 -25 -9 -50 -20 -158 -72 -628 -239 -774 -275 -8 -2 -67 -17 -130
-34 -63 -17 -126 -32 -140 -35 -14 -2 -57 -11 -95 -20 -89 -19 -216 -41 -345
-61 -14 -2 -38 -6 -55 -9 -51 -9 -152 -20 -270 -30 -44 -4 -98 -9 -121 -11
-96 -9 -352 -17 -553 -17 -253 0 -890 11 -941 17 -19 2 -71 7 -115 10 -44 3
-87 8 -95 10 -8 3 -42 7 -75 10 -33 3 -71 7 -85 10 -14 2 -43 6 -65 10 -23 3
-50 7 -60 9 -11 2 -40 7 -65 11 -25 4 -54 9 -65 12 -11 2 -45 8 -75 14 -136
26 -258 57 -440 114 -58 18 -159 49 -225 69 -66 20 -129 41 -140 46 -11 5 -51
20 -90 33 -79 28 -247 94 -315 124 -25 11 -61 26 -80 34 -78 31 -556 274 -712
362 -167 95 -322 204 -578 412 -238 192 -329 274 -535 480 -200 199 -302 314
-458 515 -35 45 -197 279 -197 284 0 2 -39 66 -86 142 -114 181 -131 212 -218
384 -215 428 -424 1022 -527 1495 -7 33 -14 65 -15 70 -13 63 -54 279 -58 310
-2 22 -10 81 -16 130 -6 50 -13 108 -16 130 -9 66 -12 942 -3 1060 33 454 104
815 263 1325 107 343 199 576 351 885 302 616 556 966 1075 1485 362 362 443
430 745 625 163 104 145 93 301 184 246 143 795 420 924 466 87 31 310 106
325 110 6 1 17 5 25 8 84 34 524 144 645 161 23 4 50 8 60 10 11 2 45 7 75 10
154 19 178 23 225 33 31 6 36 7 115 18 25 4 56 8 70 11 14 2 61 8 105 14 44 6
94 13 110 15 17 2 61 7 98 10 37 4 78 8 90 10 11 3 64 7 117 11 52 3 97 8 100
11 5 4 472 -4 595 -11z m-8730 -201 c55 -3 132 -5 170 -5 179 4 2861 5 2873 2
33 -11 -5 -159 -63 -246 -19 -28 -66 -91 -106 -141 -40 -49 -92 -121 -117
-159 -24 -38 -98 -146 -165 -240 -66 -94 -136 -193 -156 -221 -68 -98 -87
-124 -191 -270 -58 -81 -118 -166 -134 -189 -40 -57 -309 -436 -508 -716 -92
-129 -172 -242 -178 -250 -6 -8 -96 -134 -200 -280 -104 -146 -195 -273 -202
-284 -7 -10 -34 -46 -59 -80 -40 -54 -140 -192 -224 -310 -94 -132 -305 -423
-523 -721 -377 -516 -386 -529 -395 -540 -4 -5 -96 -129 -203 -275 -108 -146
-234 -316 -280 -378 -46 -62 -84 -116 -84 -119 0 -12 213 -357 230 -373 3 -3
18 -25 35 -50 35 -53 312 -435 486 -670 68 -91 182 -250 255 -355 73 -104 137
-194 141 -200 5 -5 58 -82 120 -170 61 -88 123 -179 139 -201 16 -23 101 -144
189 -269 88 -125 167 -237 175 -249 42 -62 162 -225 319 -435 197 -261 297
-399 307 -421 4 -8 15 -25 23 -36 9 -12 22 -30 28 -40 13 -18 170 -243 262
-374 25 -36 81 -114 125 -175 43 -60 94 -130 111 -155 17 -25 182 -252 367
-505 336 -462 585 -808 692 -964 78 -112 82 -172 14 -207 -27 -14 -49 -16
-138 -10 -58 3 -847 6 -1755 6 l-1650 0 -111 152 c-275 377 -531 755 -1116
1648 -207 316 -420 638 -474 715 -53 77 -139 205 -191 285 -244 370 -295 440
-395 540 l-70 70 -32 -53 c-43 -69 -468 -735 -516 -807 -14 -21 -177 -270
-235 -360 -69 -106 -365 -555 -584 -885 -102 -154 -187 -283 -189 -287 -2 -5
-217 -331 -262 -398 -12 -18 -179 -274 -302 -464 -77 -119 -91 -134 -120 -140
-56 -10 -295 -19 -473 -18 -93 0 -828 1 -1633 1 -1228 0 -1462 3 -1462 14 0
22 35 118 65 177 46 92 106 178 235 340 68 85 160 207 204 270 67 98 121 173
153 215 5 6 93 129 197 275 105 146 192 267 195 270 3 3 11 13 16 22 11 18
607 854 665 933 47 63 359 501 382 535 9 14 79 111 155 217 76 106 144 200
151 210 7 10 96 135 199 278 102 143 196 274 207 290 12 17 36 50 54 75 55 75
60 82 119 165 113 160 175 247 440 615 148 206 320 447 382 535 l112 159 -6
59 c-8 76 -49 199 -86 260 -16 26 -29 50 -29 52 0 9 -71 107 -163 224 -49 63
-96 126 -105 140 -9 15 -19 28 -22 31 -6 6 -39 56 -55 83 -11 19 -470 677
-583 834 -18 25 -469 665 -482 683 -6 8 -33 47 -60 85 -27 39 -54 77 -60 85
-20 30 -109 155 -117 165 -4 6 -33 46 -63 90 -30 44 -58 85 -63 90 -9 11 -447
636 -727 1039 -91 130 -212 304 -270 386 -58 82 -150 215 -205 295 -55 81
-106 154 -113 163 -15 19 -100 142 -199 286 -37 55 -132 190 -211 300 l-143
201 3 65 3 64 1746 0 1745 0 36 -39 c137 -155 226 -277 490 -677 97 -147 216
-321 265 -386 48 -66 138 -194 200 -283 62 -90 126 -184 144 -209 17 -25 93
-137 170 -250 220 -326 333 -492 344 -504 6 -6 28 -38 50 -71 62 -93 279 -394
357 -496 145 -190 194 -249 205 -249 23 0 114 104 196 225 45 66 85 125 89
130 46 59 91 120 124 170 89 133 681 1013 919 1365 126 185 445 653 485 710 6
8 64 92 130 185 203 290 211 300 246 329 19 15 49 32 67 38 33 10 138 26 147
22 3 -1 50 -5 105 -9z m16315 -12859 c19 -2 64 -7 100 -11 36 -3 76 -7 90 -9
14 -2 52 -8 85 -11 103 -13 158 -21 205 -30 14 -3 41 -7 60 -10 35 -4 293 -50
340 -60 14 -3 39 -8 55 -10 17 -3 37 -8 45 -10 8 -2 26 -6 40 -9 213 -40 715
-163 1050 -258 96 -27 176 -51 178 -52 3 -3 -13 -45 -151 -411 -182 -480 -319
-841 -323 -846 -2 -4 -120 40 -261 97 -142 58 -271 108 -288 113 -16 5 -61 21
-100 35 -336 127 -759 241 -1060 287 -134 20 -383 16 -500 -9 -275 -59 -482
-166 -597 -310 -68 -85 -98 -241 -73 -382 9 -55 69 -171 108 -212 48 -49 97
-79 182 -111 150 -55 425 -116 650 -142 28 -3 61 -8 75 -10 37 -7 84 -13 195
-25 55 -6 111 -13 125 -15 14 -3 48 -7 75 -10 28 -3 61 -8 75 -10 14 -3 42 -7
63 -10 409 -49 967 -247 1314 -466 205 -129 387 -296 498 -457 185 -268 267
-554 267 -937 1 -178 -3 -223 -23 -340 -22 -122 -89 -287 -160 -393 -16 -24
-29 -47 -29 -52 0 -4 -4 -10 -8 -12 -4 -1 -29 -30 -54 -64 -91 -118 -298 -298
-472 -408 -90 -58 -288 -159 -409 -211 -98 -41 -355 -131 -432 -151 -16 -4
-34 -8 -40 -10 -28 -8 -234 -55 -260 -59 -273 -48 -384 -58 -675 -58 -186 -1
-429 8 -510 18 -14 1 -56 6 -95 9 -38 4 -97 11 -130 16 -33 5 -85 12 -115 15
-30 3 -62 8 -70 10 -8 2 -33 6 -55 10 -73 10 -310 52 -310 55 0 1 -11 3 -25 6
-66 11 -316 71 -495 119 -200 53 -513 160 -693 236 -51 21 -53 24 -48 52 3 16
12 43 20 60 16 34 176 435 180 452 3 11 19 53 41 105 8 19 55 141 106 270 50
129 98 252 108 272 l16 37 65 -32 c113 -57 300 -138 455 -197 83 -32 159 -61
170 -65 11 -4 25 -9 30 -11 6 -1 66 -21 135 -44 207 -68 546 -151 720 -176 14
-1 58 -8 99 -14 233 -34 587 -31 769 6 326 66 528 202 567 384 8 36 9 180 1
215 -38 182 -117 274 -307 351 -141 58 -434 147 -559 169 -14 2 -70 14 -124
25 -55 11 -181 34 -280 51 -100 16 -194 32 -211 35 -16 3 -54 10 -82 15 -98
17 -158 28 -237 44 -44 8 -93 18 -109 20 -70 13 -341 86 -432 118 -653 225
-1027 634 -1070 1172 -4 44 -9 98 -11 120 -11 88 -4 440 10 510 2 11 7 49 11
85 11 100 68 314 115 434 145 362 398 638 762 829 158 84 455 188 602 211 19
3 55 10 78 15 24 5 61 12 83 15 22 4 54 9 70 11 43 8 89 13 185 20 47 4 87 9
89 11 5 5 480 -4 521 -10z m-5562 -118 c255 -1 466 -6 468 -10 4 -7 6 -228 19
-2063 4 -467 8 -1068 10 -1335 2 -267 6 -945 10 -1507 l6 -1023 -188 0 c-103
0 -456 -1 -783 -2 l-595 -2 -5 1485 -5 1484 -87 -140 c-48 -77 -91 -144 -95
-150 -5 -5 -60 -92 -123 -192 -63 -101 -126 -201 -140 -223 -14 -21 -41 -65
-61 -97 -20 -32 -121 -191 -224 -353 -103 -162 -203 -321 -224 -353 -71 -114
-273 -433 -295 -467 -13 -19 -54 -84 -91 -144 -91 -144 -172 -208 -319 -250
-82 -24 -104 -27 -226 -31 -206 -6 -349 44 -468 164 -31 31 -141 203 -196 305
-6 12 -19 32 -27 46 -15 22 -637 1064 -685 1147 -11 18 -57 96 -104 174 -47
78 -96 161 -110 184 -14 24 -70 118 -125 210 l-100 167 -3 -1481 c-1 -815 -5
-1482 -10 -1482 -4 -1 -368 -2 -809 -3 l-803 -1 0 55 c-1 30 -1 714 -1 1520 1
806 1 2118 1 2915 l0 1450 809 0 c445 0 811 -2 813 -5 5 -6 62 -105 188 -330
20 -36 86 -153 147 -260 60 -107 121 -216 136 -242 53 -95 166 -294 186 -328
11 -19 24 -41 28 -49 3 -8 31 -58 61 -110 30 -53 64 -114 76 -136 83 -147 353
-625 421 -745 45 -80 95 -167 110 -195 15 -27 55 -99 90 -160 34 -60 76 -135
93 -165 17 -30 80 -142 140 -249 108 -189 110 -193 125 -170 18 28 215 355
231 384 21 36 81 136 98 163 9 15 23 38 31 52 7 14 149 250 314 525 165 275
310 516 320 535 15 26 249 416 312 520 17 27 176 291 186 308 6 9 26 44 46 77
21 33 46 76 57 95 32 57 283 474 292 485 6 7 112 10 312 9 167 -1 512 -4 766
-6z m2791 -2960 l-1 -2968 -47 -1 c-61 -1 -1563 -1 -1619 0 l-43 1 3 2963 c1
1629 3 2964 4 2967 1 3 385 6 854 6 l851 0 -2 -2968z m-17309 2302 l0 -656
-1462 1 -1463 0 0 -628 c0 -346 2 -631 5 -635 3 -4 592 -7 1310 -7 l1305 0 1
-645 c0 -355 -1 -649 -3 -655 -2 -7 -447 -10 -1308 -10 -718 1 -1306 -1 -1306
-5 -1 -3 -3 -441 -5 -975 -2 -533 -3 -993 -4 -1020 l0 -50 -847 0 -848 0 -3
2970 -2 2970 2315 0 2315 0 0 -655z m3510 646 c118 -12 159 -18 260 -37 864
-163 1507 -757 1715 -1584 31 -123 36 -153 53 -285 14 -113 7 -450 -12 -545
-67 -345 -215 -652 -465 -965 -85 -106 -279 -306 -386 -396 -38 -32 -72 -61
-75 -64 -8 -8 -83 -64 -110 -82 -14 -10 -36 -26 -50 -37 l-24 -19 26 -39 c14
-21 112 -175 218 -343 106 -168 207 -327 225 -355 122 -189 368 -576 400 -629
11 -18 70 -110 130 -205 61 -94 115 -179 120 -188 6 -10 29 -46 52 -82 23 -35
40 -68 38 -72 -3 -4 -424 -6 -936 -5 l-931 2 -25 44 c-14 24 -104 177 -201
340 -96 162 -183 309 -193 326 -9 17 -37 64 -62 105 -53 88 -235 395 -251 424
-6 11 -60 102 -119 201 l-108 182 -459 0 -460 -1 0 -791 0 -792 -137 -21 c-88
-14 -169 -21 -223 -19 -47 2 -186 7 -310 11 -124 4 -265 8 -315 10 -49 2 -200
6 -335 10 -135 4 -267 8 -294 9 -38 2 -53 7 -70 27 l-21 24 1 2510 c1 1381 4
2580 9 2665 4 85 9 178 10 205 2 28 6 113 11 190 4 77 8 156 9 175 2 19 3 51
4 70 l1 35 1618 -1 c889 -1 1642 -4 1672 -8z m4051 -6 c0 -8 0 -762 0 -1675 0
-913 -1 -2243 -1 -2955 l0 -1295 -838 2 c-460 1 -844 2 -852 2 -14 1 -15 315
-13 2929 1 1610 2 2945 2 2967 l1 40 850 0 c749 0 850 -2 851 -15z m18752 11
c4 0 7 -5 7 -11 0 -8 55 -136 175 -405 7 -16 66 -149 130 -295 64 -146 127
-288 141 -317 13 -29 28 -62 33 -75 5 -13 69 -160 144 -328 162 -367 229 -518
303 -687 31 -71 64 -146 74 -168 10 -22 37 -83 60 -135 23 -52 50 -113 60
-135 10 -22 84 -191 165 -375 81 -184 160 -363 176 -398 16 -35 29 -66 29 -68
0 -3 20 -48 45 -101 25 -52 45 -97 45 -99 0 -2 9 -23 20 -47 10 -23 89 -202
175 -397 87 -195 165 -373 175 -395 9 -22 50 -114 90 -205 40 -91 84 -189 98
-219 13 -30 40 -91 59 -135 18 -44 40 -94 48 -110 12 -26 287 -650 345 -783
11 -24 18 -43 17 -44 -1 -1 -384 -2 -850 -4 l-849 -3 -20 47 c-11 25 -67 163
-124 306 -58 143 -111 274 -119 290 -7 17 -41 100 -75 185 -34 85 -69 171 -77
190 -19 44 -36 85 -53 128 -12 31 -14 32 -74 33 -331 3 -2470 -1 -2473 -5 -5
-4 -136 -346 -153 -396 -4 -14 -24 -65 -42 -115 -19 -49 -81 -214 -138 -365
-56 -151 -107 -279 -111 -284 -13 -15 -1739 -14 -1739 0 0 6 13 40 29 75 15
35 97 219 181 409 83 190 178 404 210 475 32 72 102 229 155 350 53 121 110
248 126 283 16 35 29 65 29 67 0 2 18 43 40 90 22 47 40 88 40 91 0 3 12 31
26 62 25 54 59 129 89 197 7 17 22 50 33 75 12 25 89 200 173 390 83 190 160
365 171 390 11 25 26 59 33 75 42 97 100 227 120 270 13 28 58 129 100 225 42
96 85 193 95 215 10 22 44 99 75 170 31 72 70 158 86 193 16 34 29 64 29 66 0
3 18 44 40 91 22 47 40 88 40 90 0 3 14 35 31 72 17 38 46 102 64 143 18 41
67 154 110 250 43 96 138 312 212 480 74 168 161 364 193 435 32 72 64 146 72
165 l15 35 829 -1 c456 -1 832 -2 837 -3z"/>
<path d="M29687 18944 c-1 -1 -53 -5 -115 -9 -63 -3 -122 -8 -132 -10 -11 -2
-43 -6 -72 -9 -29 -4 -64 -8 -78 -11 -13 -3 -40 -7 -60 -10 -33 -5 -47 -8
-105 -20 -11 -3 -29 -7 -40 -9 -104 -21 -367 -100 -440 -131 -16 -7 -61 -25
-100 -40 -226 -88 -576 -297 -796 -477 -119 -96 -316 -287 -410 -396 -215
-251 -416 -582 -536 -887 -77 -198 -118 -331 -157 -513 -24 -114 -29 -145 -41
-227 -4 -22 -8 -51 -10 -64 -24 -143 -24 -548 0 -731 1 -14 6 -50 10 -80 25
-205 120 -563 196 -735 4 -11 27 -63 50 -115 185 -428 523 -867 904 -1173 262
-211 568 -388 875 -505 253 -97 577 -175 815 -197 207 -19 367 -23 551 -12
103 7 320 32 354 41 8 3 31 7 51 10 121 18 375 89 544 153 625 237 1171 672
1541 1230 41 62 74 115 74 119 0 4 6 15 14 23 24 27 151 280 196 391 62 153
122 335 145 440 2 8 10 42 19 75 8 33 18 76 21 95 3 19 7 44 9 55 2 11 7 43
11 70 3 28 8 57 10 65 30 116 27 667 -5 850 -5 30 -11 71 -14 90 -5 31 -40
199 -50 240 -21 83 -33 123 -72 238 -127 376 -322 725 -576 1026 -116 138
-283 304 -397 396 -24 19 -60 49 -80 66 -142 121 -493 331 -684 410 -34 14
-81 34 -104 44 -103 47 -483 160 -586 174 -17 3 -55 9 -84 15 -29 6 -81 13
-115 16 -35 4 -68 8 -75 10 -29 9 -447 26 -456 19z"/>
<path d="M8954 6981 c-2 -2 -4 -386 -4 -853 l0 -848 663 0 c547 0 669 3 703
15 313 109 525 343 591 652 18 82 24 310 11 394 -12 78 -56 201 -95 268 -113
190 -283 299 -558 357 -70 15 -157 17 -693 18 -337 1 -615 -1 -618 -3z"/>
<path d="M32533 6688 c-6 -18 -20 -55 -31 -83 -10 -27 -45 -120 -77 -205 -32
-85 -62 -166 -68 -180 -5 -14 -11 -29 -13 -35 -2 -5 -64 -172 -139 -370 -75
-198 -149 -394 -165 -435 -147 -395 -194 -522 -211 -563 -11 -26 -18 -51 -15
-55 3 -5 1426 -9 1432 -3 1 0 -10 31 -23 69 -14 37 -52 144 -85 237 -33 94
-73 206 -88 250 -16 44 -56 157 -89 250 -32 94 -83 235 -111 315 -29 80 -56
156 -60 170 -5 14 -32 90 -60 170 -29 80 -79 221 -111 315 -33 93 -63 173 -67
177 -5 5 -13 -6 -19 -24z"/>
</g>
</svg>
