<?xml version="1.0" encoding="UTF-8" standalone="no"?>
<svg
   version="1.1"
   viewBox="0 0 848.81523 1600.0001"
   width="530.50952"
   height="1000"
   id="svg5520"
   sodipodi:docname="xcovertical.svg"
   inkscape:version="1.2 (dc2aeda, 2022-05-15)"
   xmlns:inkscape="http://www.inkscape.org/namespaces/inkscape"
   xmlns:sodipodi="http://sodipodi.sourceforge.net/DTD/sodipodi-0.dtd"
   xmlns="http://www.w3.org/2000/svg"
   xmlns:svg="http://www.w3.org/2000/svg">
  <defs
     id="defs5524" />
  <sodipodi:namedview
     id="namedview5522"
     pagecolor="#ffffff"
     bordercolor="#666666"
     borderopacity="1.0"
     inkscape:showpageshadow="2"
     inkscape:pageopacity="0.0"
     inkscape:pagecheckerboard="0"
     inkscape:deskcolor="#d1d1d1"
     showgrid="false"
     showguides="true"
     inkscape:zoom="0.10419379"
     inkscape:cx="1924.299"
     inkscape:cy="1022.1339"
     inkscape:window-width="1920"
     inkscape:window-height="1027"
     inkscape:window-x="0"
     inkscape:window-y="25"
     inkscape:window-maximized="1"
     inkscape:current-layer="svg5520">
    <sodipodi:guide
       position="-681.99354,364.91664"
       orientation="1,0"
       id="guide9073"
       inkscape:locked="false" />
    <sodipodi:guide
       position="-678.35312,346.18363"
       orientation="0,-1"
       id="guide9075"
       inkscape:locked="false" />
    <sodipodi:guide
       position="-1344.5544,452.12302"
       orientation="0,-1"
       id="guide9077"
       inkscape:locked="false" />
    <sodipodi:guide
       position="-1359.2385,423.08742"
       orientation="0,-1"
       id="guide9079"
       inkscape:locked="false" />
    <sodipodi:guide
       position="-1339.9844,350.70603"
       orientation="1,0"
       id="guide9081"
       inkscape:locked="false" />
    <sodipodi:guide
       position="-1410.9698,421.12227"
       orientation="1,0"
       id="guide9083"
       inkscape:locked="false" />
    <sodipodi:guide
       position="-1351.9887,393.07905"
       orientation="0,-1"
       id="guide9085"
       inkscape:locked="false" />
    <sodipodi:guide
       position="-1301.0079,349.11515"
       orientation="1,0"
       id="guide9087"
       inkscape:locked="false" />
    <sodipodi:guide
       position="-1214.9132,347.14995"
       orientation="1,0"
       id="guide9089"
       inkscape:locked="false" />
    <sodipodi:guide
       position="-1257.9606,348.31971"
       orientation="1,0"
       id="guide9091"
       inkscape:locked="false" />
    <sodipodi:guide
       position="-1247.6396,383.2629"
       orientation="0,-1"
       id="guide9154"
       inkscape:locked="false" />
    <sodipodi:guide
       position="-1279.9267,383.82572"
       orientation="1,0"
       id="guide9156"
       inkscape:locked="false" />
    <sodipodi:guide
       position="-5082.8367,448.29989"
       orientation="0,-1"
       id="guide9158"
       inkscape:locked="false" />
    <sodipodi:guide
       position="-1178.6721,482.16604"
       orientation="0,-1"
       id="guide9160"
       inkscape:locked="false" />
    <sodipodi:guide
       position="-1170.9507,472.71315"
       orientation="1,0"
       id="guide9162"
       inkscape:locked="false" />
    <sodipodi:guide
       position="-1210.0257,356.51754"
       orientation="1,0"
       id="guide9164"
       inkscape:locked="false" />
    <sodipodi:guide
       position="-1157.9766,351.14917"
       orientation="1,0"
       id="guide9166"
       inkscape:locked="false" />
    <sodipodi:guide
       position="-1120.8879,350.00547"
       orientation="1,0"
       id="guide9168"
       inkscape:locked="false" />
    <sodipodi:guide
       position="-1035.9679,352.17034"
       orientation="1,0"
       id="guide9170"
       inkscape:locked="false" />
    <sodipodi:guide
       position="-999.98204,342.32631"
       orientation="1,0"
       id="guide9172"
       inkscape:locked="false" />
    <sodipodi:guide
       position="-1071.4919,414.25373"
       orientation="0,-1"
       id="guide9174"
       inkscape:locked="false" />
    <sodipodi:guide
       position="813.70388,366.2544"
       orientation="0,-1"
       id="guide9176"
       inkscape:locked="false" />
    <sodipodi:guide
       position="-1079.8324,377.19824"
       orientation="1,0"
       id="guide9178"
       inkscape:locked="false" />
    <sodipodi:guide
       position="-7316.4959,6174.0894"
       orientation="0,-1"
       id="guide10279"
       inkscape:locked="false" />
    <sodipodi:guide
       position="-7309.5012,4278.506"
       orientation="0,-1"
       id="guide10281"
       inkscape:locked="false" />
    <sodipodi:guide
       position="-6622.6029,3632.1442"
       orientation="0,-1"
       id="guide10283"
       inkscape:locked="false" />
    <sodipodi:guide
       position="-6602.6823,1679.9339"
       orientation="0,-1"
       id="guide10285"
       inkscape:locked="false" />
    <sodipodi:guide
       position="-6961.2516,3472.7801"
       orientation="0,-1"
       id="guide10287"
       inkscape:locked="false" />
  </sodipodi:namedview>
  <g
     id="g11349"
     transform="scale(0.97923282)">
    <path
       id="rect11318"
       style="fill:none;stroke:#000000;stroke-width:16.389;stroke-linecap:round;stroke-linejoin:round;paint-order:markers stroke fill"
       d="m 14.87214,8.1945 h 837.07222 c 3.6995,0 6.6777,2.978228 6.6777,6.677641 V 1619.0601 c 0,3.6994 -2.9782,6.6776 -6.6777,6.6776 H 14.87214 c -3.69941,0 -6.67764,-2.9782 -6.67764,-6.6776 V 14.872141 c 0,-3.699413 2.97823,-6.677641 6.67764,-6.677641 z" />
    <g
       id="g7506"
       transform="translate(-581.62387,-181.53405)">
      <path
         d="m 1095.0368,1625.7659 h 39.0295 l -0.047,135.8891 h -39.059 c -10e-5,0 0.076,-135.8891 0.076,-135.8891 z"
         fill="#fefefe"
         id="path5504-6"
         sodipodi:nodetypes="ccccc"
         style="fill:#000000" />
      <path
         transform="translate(631,235)"
         d="m 0,0 h 503 l 266,1 v 719 l -5,1 -8,-2 -3,-5 -6,-16 v -5 l 3,-3 -1,-7 -4,-4 -8,-3 -7,-12 1,-5 1,-6 -3,-4 v -2 l -11,-2 -8,-10 v -6 l 1,-2 v -6 l -5,-5 -10,1 -8,-8 -2,-5 2,-6 -5,-6 -5,-2 -3,2 -5,-1 -9,-8 -2,-10 -5,-2 h -11 l -3,-3 v -2 l -8,-4 -3,-10 -5,-4 h -6 l -4,2 -11,-5 -6,-11 -2,-2 -17,1 -2,-2 -3,-15 -1,-9 v -13 l 3,-16 v -7 l -5,-5 -4,-3 v -39 l -1,-11 3,-3 -1,-10 -1,-5 v -10 l 2,-6 v -5 l -5,-7 v -12 l 1,-21 2,-7 5,-4 3,-5 -1,-6 -4,-16 -1,-17 2,-6 12,-11 3,-2 h 25 l 6,-4 7,-8 7,-16 v -13 l -7,-20 -6,-11 -4,-5 -15,-9 -9,-16 -11,-13 -11,-9 -10,-5 -7,-2 h -16 l -12,4 -6,1 -9,-10 -8,-11 L 487,99 476,86 464,72 454,59 443,47 l -10,-7 -16,-8 -12,-3 -15,-1 -6,5 -8,14 -3,8 -1,11 3,14 9,17 6,10 3,6 v 3 l -11,-1 -5,3 -13,-1 -12,-3 h -19 l -15,3 -11,1 -22,-1 -12,4 -7,4 h -6 l -2,-4 -11,-4 h -9 l -7,-3 -2,-1 h -8 l -7,3 -33,1 -13,4 -15,9 -6,5 -7,8 -8,9 -10,17 -4,13 -2,15 v 8 l 3,22 5,16 5,11 v 4 l -21,4 -19,5 -27,7 -8,1 -5,-4 h -6 l -6,3 H 27 l -6,-3 h -5 l -5,4 H 1 l -2,-4 V 1 Z"
         fill="#fefefe"
         id="path5472"
         style="fill:#000000" />
      <path
         d="m 0,0 h 14 l -2,5 -6,9 -10,17 -10,16 -12,19 -15,24 -7,11 -2,3 1,8 3,5 2,4 -8,14 -9,18 1,4 1,2 v 6 l -5,5 -9,14 -7,14 -4,16 -1,6 v 18 l 4,16 7,13 8,10 6,7 10,8 16,9 14,5 18,3 h 33 l 22,-3 13,-4 16,-8 12,-8 13,-12 7,-8 9,-14 7,-14 4,-16 1,-7 v -11 l -4,-18 -4,-9 -7,-12 -7,-9 -1,-3 -4,-2 -10,-9 -14,-8 -7,-2 1,-5 8,-14 28,-50 10,-18 18,-32 11,3 19,7 29,14 24,14 11,8 9,7 11,9 17,17 15,20 10,16 6,12 11,31 4,16 2,19 v 22 l -2,20 -5,20 -7,20 -7,16 -14,24 -12,16 -14,17 -7,7 -7,8 -10,9 -18,13 -15,11 -14,9 -23,12 -17,8 -29,11 -28,8 -25,5 -24,3 -13,1 h -64 l -21,-2 -27,-5 -36,-10 -27,-11 -25,-13 -17,-11 -14,-10 -11,-10 -8,-7 -13,-14 -11,-15 -13,-19 -11,-21 -5,-17 -5,-24 -1,-8 v -37 l 4,-23 6,-24 13,-29 12,-20 9,-12 8,-10 18,-20 13,-12 15,-11 19,-13 14,-10 24,-13 19,-8 14,-6 27,-8 23,-6 z"
         fill="#fefefe"
         id="path5474"
         style="fill:#000000"
         transform="translate(990,792)" />
      <path
         id="path5476"
         d="m 1398,1099.0003 c -4.219,6.0287 -11.114,9.5272 -13.0719,17.1438 -4.9715,6.1601 3.6857,17.8415 -5.8312,21.1968 -4.9552,5.4745 -9.5226,14.4502 -5.0969,21.6594 0.4799,9.2837 -13.2859,7.2101 -14.725,15.9938 -5.7142,5.7799 -1.6482,14.4098 -4.0781,20.8093 -4.4599,5.1247 -14.2313,2.5254 -15.1969,11.1969 -7.04,3.7743 -4.7019,11.4331 -5,18 -3.3728,7.3832 -14.6565,1.2857 -17.6437,9.3719 -7.4091,4.165 -5.1361,10.0751 -5.0375,16.5375 -3.3379,7.3915 -10.6388,4.8845 -16.7813,5.9844 -3.7409,4.3972 -12.9157,8.1595 -9.5375,15.1062 1.1088,7.3743 -5.1511,11.7693 -12,10 -6.1931,-2.5713 -14.2214,3.5605 -15.8281,9.3125 3.9146,6.0848 -1.5138,14.2476 -9,11.6875 -6.4336,-2.3171 -12.1288,-1.2521 -17.9781,3.6844 -8.651,2.3043 -3.3705,10.9988 -6.2719,15.675 -6.6856,4.5705 -12.4351,2.5226 -17.9688,-0.9125 -5.2085,2.9775 -15.0978,5.0865 -14.9531,11.9656 2.2281,8.1232 -9.0785,7.1992 -14,11.5875 -20.9338,13.5319 -38.9486,32.1052 -49.0531,55.1063 -8.8578,15.8857 -10.9038,34.5452 -12.9469,52.3062 -1.1618,17.2498 2.9001,34.2402 7.1469,50.8031 7.3838,21.9979 21.3154,41.7465 39.3125,56.3969 19.1291,16.3741 43.3211,26.3256 67.9312,30.7875 18.5411,2.258 37.6056,2.7307 56.0719,-0.2937 33.3657,-5.4136 65.3044,-22.3653 86.225,-49.2844 15.809,-19.7167 26.0019,-44.4154 26.9313,-69.8125 0.8897,-60.8501 0.1275,-121.7791 0.3812,-182.6594 v -187.35 c -0.6666,-0.6667 -1.3333,-1.3333 -2,-2 z m -140.0687,283.325 a 73.654564,72.857796 0 0 1 73.6531,72.8594 73.654564,72.857796 0 0 1 -73.6531,72.8562 73.654564,72.857796 0 0 1 -73.6532,-72.8562 73.654564,72.857796 0 0 1 73.6532,-72.8594 z" />
      <path
         transform="translate(1044,674)"
         d="m 0,0 h 6 l 3,8 6,15 1,7 -7,11 -11,18 -2,1 h -10 l -5,-4 -4,-1 -7,4 -4,3 -9,-1 -5,-2 h -6 l -7,5 -15,2 -5,-3 -5,1 -5,4 -13,3 -8,1 -5,-3 -4,1 -3,5 -13,5 h -6 l -3,-2 h -7 l -7,9 -10,4 -1,1 h -5 l -7,-2 -5,4 -6,7 -7,3 -4,1 -5,-2 h -5 l -5,6 -2,6 -6,3 -11,-1 -6,3 -2,3 -2,8 -2,1 h -15 l -4,4 -1,5 v 5 l -9,5 -10,1 -4,4 -1,9 -10,9 -1,1 -9,1 -4,3 -1,9 -12,12 -9,2 h -2 l -1,14 -9,11 -12,6 v 12 l -8,14 -2,2 -8,3 -3,4 v 6 l 2,3 -1,7 -7,10 -8,5 -1,5 3,5 v 6 l -4,8 -7,3 -3,12 -2,-1 V 9 l 1,-1 15,-1 5,5 12,16 5,6 14,7 4,1 15,1 5,7 v 2 l 28,5 27,3 3,-3 1,-2 v -6 l -3,-4 v -3 l 12,-9 2,-4 -1,-8 1,-1 37,-2 71,-6 76,-6 74,-5 z"
         fill="#fefefe"
         id="path5480"
         style="fill:#000000" />
      <path
         d="m 635,1329 c 26.66667,0 53.33333,0 80,0 7.35032,7.8515 12.24661,17.7202 18.84464,26.2286 10.93073,15.4242 20.95285,31.5948 32.7367,46.3527 2.91097,-1.6846 5.5172,-7.253 8.31084,-10.433 13.50144,-19.9155 26.72969,-40.0614 40.63493,-59.6754 3.23145,-4.6112 9.60834,-1.6287 14.40014,-2.4729 21.35758,0 42.71517,0 64.07275,0 0.5134,5.3861 -5.0545,8.8552 -7.26732,13.3819 C 860.50816,1379.5052 834.20889,1416.5895 807,1453 c 6.64165,11.9027 15.7369,22.3195 23.38633,33.6118 9.70439,13.6677 18.96933,27.6401 29.30295,40.8453 12.86988,19.2494 27.10608,37.5302 40.31072,56.5429 1.30369,5.7825 -7.09441,1.8632 -10.43634,3 -23.85455,0 -47.70911,0 -71.56366,0 -14.877,-19.6915 -27.48151,-40.9558 -41.50215,-61.2532 -4.08388,-5.6496 -7.15058,-12.133 -12.49785,-16.7468 -16.35643,26.149 -33.83049,51.6283 -50.52711,77.5271 -8.71178,1.1023 -18.27108,0.1585 -27.3092,0.4729 -18.38789,0 -36.77579,0 -55.16369,0 1.57356,-7.4854 8.20162,-12.5912 12.05505,-19.0033 18.84398,-25.9991 37.28112,-52.2882 56.10363,-78.3048 7.12748,-10.3393 14.75095,-20.3298 21.84132,-30.6919 -0.0145,-7.8966 -6.7919,-12.9919 -10.53229,-19.3452 -16.19089,-23.3464 -32.81024,-46.3854 -48.967,-69.7538 C 652.60019,1357.3147 644.00031,1344.5174 635,1332 c 0,-1 0,-2 0,-3 z"
         fill="#fefefe"
         id="path5482"
         style="fill:#000000" />
      <path
         d="m 1013,1324 c 13.2977,0.4137 26.5853,0.9261 39.6474,3.6636 15.3404,1.752 29.4448,8.6143 42.8262,15.9105 11.1906,6.7036 20.999,15.604 29.933,25.0358 4.266,4.8593 -2.5211,9.2778 -5.6263,12.6099 -11.2555,10.3508 -22.3285,20.9394 -33.7891,31.0735 -3.8342,4.273 -8.4123,-1.6574 -11.1743,-4.4764 -5.9052,-6.492 -13.7697,-10.8704 -21.1852,-15.3432 -10.0896,-4.5589 -21.035,-7.2699 -32.1608,-6.4737 -12.0422,-0.4744 -24.26658,2.1184 -35.06737,7.4261 -7.27268,5.1558 -14.90753,9.9087 -20.22128,17.2439 -4.10316,6.146 -7.55471,12.9943 -10.55999,19.7465 -3.34122,10.5523 -5.39523,21.4702 -4.62226,32.5786 0.92326,10.1846 3.23815,20.2732 7.47327,29.6354 5.08834,10.2452 11.33954,20.8011 21.92578,26.126 7.21116,5.0093 15.05831,9.3012 23.94495,10.1123 11.4719,2.9519 23.4701,2.8561 34.8751,-0.3126 12.9766,-1.6409 23.4639,-10.1797 33.7809,-17.5562 3.2034,-2.2642 5.549,-8.982 9.3112,-8.3444 9.0882,5.4596 16.0467,13.9582 24.0577,20.8777 6.7896,6.2507 13.8424,12.212 20.6311,18.4667 -0.1379,7.076 -7.3836,10.3479 -11.3662,15.3663 -6.6103,6.9679 -15.0434,11.9553 -22.9603,17.2579 -14.7047,7.4321 -30.2649,13.4495 -46.6416,15.8073 -14.5879,2.4349 -29.5051,1.5521 -44.2175,1.3257 -9.95336,-0.7535 -19.75441,-2.2803 -29.20563,-5.5833 -13.09879,-3.6591 -25.43761,-9.8577 -37.18977,-16.6208 -14.93871,-10.918 -29.22262,-23.3641 -38.57191,-39.5687 -5.61146,-8.4352 -9.47282,-18.0082 -12.85395,-27.5084 -4.34681,-13.7403 -7.87046,-27.945 -6.99314,-42.4711 -0.65365,-14.2887 1.45022,-28.5587 6.02744,-42.1009 2.93965,-10.472 7.60934,-20.5031 12.98958,-29.9324 7.45478,-13.0477 18.15592,-23.7983 29.18832,-33.8061 10.50919,-7.9857 22.32511,-13.9844 34.18544,-19.6291 9.87748,-3.5709 19.85818,-6.7205 30.3614,-7.7367 7.69477,-1.4201 15.44132,-2.3004 23.24782,-2.7997 z"
         fill="#fefefe"
         id="path5484"
         style="fill:#000000" />
      <path
         transform="translate(924,1626)"
         d="M 0,0 H 37.07966 L 78,72.515045 121.61302,-0.23089364 157,0 l 0.94471,135.82444 -36,0.0601 0.0244,-68.04718 -31.845673,50.30213 c 0,0 -2.636731,4.71574 -11.944535,4.86047 C 70.260099,123.12314 67,118 67,118 l -29.944714,-50.165858 -0.0061,68.082408 -37.07371311,0.0171 z"
         fill="#fefefe"
         id="path5488"
         sodipodi:nodetypes="cccccccccsccccc"
         style="fill:#000000" />
      <path
         id="path5490"
         d="m 2.5e-5,3.12e-4 -1,19 V 134.00031 l 1,1 32,1 6,-1 -0.04023,-36.201135 21.040227,-0.0057 22,37.125235 42.935808,0.0816 -27.935808,-43.999999 c 0,0 26.331888,-16.697403 25.999998,-43 -0.33189,-26.302597 -20.2604,-48.86722556 -51.999998,-49 z m 38,30 h 23 c 0,0 22.433846,-2.145554 22.271476,18.835581 -0.132042,17.062261 -15.271476,20.164419 -15.271476,20.164419 h -30 z"
         transform="translate(743,1626)"
         style="fill:#000000"
         sodipodi:nodetypes="ccccccccccczccccsccc" />
      <path
         id="path5492"
         d="m 2.5e-5,3.12e-4 -60.12358,135.924158 c 13.323123,-0.23578 39.989269,0.016 39.989269,0.016 l 10.134311,-26.94018 h 58 l 11,27 39,-0.0899 -60,-135.910108 z m 19.0034,35.815383 15.9966,45.184617 h -33 z"
         transform="translate(1302,1626)"
         sodipodi:nodetypes="ccccccccccccc" />
      <path
         transform="translate(1187,1623)"
         d="M 0,0 C 22.153399,-1.100969 62,11 62,11 L 51,40 C 51,40 20.696066,26.402352 4.8511884,27.225333 c -6.4013602,0.332486 -17.4599364,3.598136 -19.4158264,10.461739 -1.694431,5.946094 1.009363,11.2702 5.3129279,12.954087 C 2.3614879,55.18514 18.719358,54.71589 30,58 57.497311,66.005236 70.212919,79.25653 68,104 66.093682,125.31525 36.890812,137.80813 14.091826,138.86649 -10.793724,140.02172 -37.282985,132.24618 -49,127 l 11,-28 c 0,0 28.7556964,15.35685 53.358841,12.64116 5.729609,-0.63243 15.550622,-3.37673 15.774666,-10.61055 C 31.329935,94.688458 29.176438,91.60702 24.148812,89.538261 7.2730979,82.59427 -12.531586,83.918801 -29,76 -38.558215,71.403954 -45.842152,63.209545 -47,53 -50.910207,18.521009 -32.449322,1.6126508 0,0 Z"
         fill="#fefefe"
         id="path5494"
         sodipodi:nodetypes="sccssssssccssssss"
         style="fill:#000000" />
      <path
         transform="translate(632,1626)"
         d="M 0,0 H 106 L 105.999,30.009421 39,30 V 59.017425 L 98.956019,59 c 0.0527,10.056525 0,30.026556 0,30.026556 L 39,89 38.94017,135.9273 H 0.02990884 Z"
         fill="#fefefe"
         id="path5496"
         sodipodi:nodetypes="ccccccccccc"
         style="fill:#000000" />
      <path
         transform="translate(1000,935)"
         d="m 0,0 h 4 l -2,4 -6,9 -15,7 -10,6 -11,10 -6,10 -4,12 v 13 l 4,11 6,9 3,3 v 2 l 4,2 9,6 13,4 6,1 H 9 l 15,-3 12,-5 11,-7 10,-10 5,-8 3,-11 V 52 l -4,-16 -5,-8 -5,-5 -4,-3 1,-6 6,-10 5,2 15,8 10,9 8,11 4,13 1,8 v 9 l -3,16 -8,16 -11,13 -13,10 -23,11 -18,4 -12,1 H -4 l -18,-2 -12,-4 -13,-7 -10,-8 -8,-9 -5,-10 -5,-17 V 67 l 5,-17 9,-16 2,-2 7,-1 6,-11 7,-6 14,-7 z"
         fill="#fefefe"
         id="path5498"
         style="fill:#000000" />
      <path
         transform="translate(1127,488)"
         d="m 0,0 4,1 7,10 5,5 8,4 10,-1 h 9 l 5,5 2,4 1,6 v 33 l 4,5 v 12 l -5,26 -1,3 -6,-2 -4,-4 2,-4 5,-4 -1,-8 -5,-10 -6,-5 -2,-1 h -9 l -5,3 -2,9 -7,6 -4,2 1,10 -7,11 -4,3 -4,1 v 10 l -7,6 -5,-2 -2,-8 v -9 l 7,-32 2,-15 V 43 l -5,-24 1,-7 6,-10 h 9 z"
         fill="#fefefe"
         id="path5500"
         style="fill:#000000" />
      <path
         transform="translate(872,1626)"
         d="M 0,0 H 39.029522 L 38.98273,135.88913 H -0.07631462 C -0.07631862,135.88913 0,0 0,0 Z"
         fill="#fefefe"
         id="path5504"
         sodipodi:nodetypes="ccccc"
         style="fill:#000000" />
      <path
         transform="translate(933,544)"
         d="m 0,0 15,2 16,5 21,4 8,1 h 14 l 10,-2 1,1 4,23 6,20 4,10 v 5 L 88,68 29,59 25,55 17,39 13,33 8,17 3,8 -2,4 V 1 Z"
         fill="#fefefe"
         id="path5506"
         style="fill:#000000" />
      <path
         transform="translate(1064,792)"
         d="m 0,0 18,2 2,2 -12,23 -6,11 -12,21 -20,36 -13,23 -4,6 -1,1 -20,3 -10,3 -4,-1 10,-15 6,-10 8,-13 24,-38 12,-20 9,-16 6,-10 5,-7 z"
         fill="#fefefe"
         id="path5508"
         style="fill:#000000" />
      <path
         transform="translate(807,577)"
         d="m 0,0 h 11 l 5,8 3,3 -1,5 -11,11 -9,3 -12,2 -2,4 -6,10 -3,1 -19,-6 -5,-1 h -10 l -3,2 -5,-1 -3,-9 7,-8 5,-10 1,-13 10,1 h 34 z"
         fill="#fefefe"
         id="path5510"
         style="fill:#000000" />
      <path
         transform="translate(1174,656)"
         d="M 0,0 4,2 9,20 V 46 L 4,49 V 98 H 1 l -7,-6 h -7 l -6,1 -2,-3 -3,-16 V 67 L -11,46 0,27 1,22 -7,10 -6,5 Z"
         fill="#fefefe"
         id="path5512"
         style="fill:#000000" />
      <path
         transform="translate(630,586)"
         d="m 0,0 9,3 22,9 1,3 -10,6 -12,9 -4,1 -6,-5 z"
         fill="#fefefe"
         id="path5518"
         style="fill:#000000" />
    </g>
  </g>
</svg>
