<?xml version="1.0" encoding="UTF-8" standalone="no"?>
<svg
   version="1.1"
   viewBox="0 0 848.81523 1600.0001"
   width="530.50952"
   height="1000"
   id="svg5520"
   sodipodi:docname="xcovertical.svg"
   inkscape:version="1.2 (dc2aeda, 2022-05-15)"
   xmlns:inkscape="http://www.inkscape.org/namespaces/inkscape"
   xmlns:sodipodi="http://sodipodi.sourceforge.net/DTD/sodipodi-0.dtd"
   xmlns="http://www.w3.org/2000/svg"
   xmlns:svg="http://www.w3.org/2000/svg">
  <defs
     id="defs5524" />
  <sodipodi:namedview
     id="namedview5522"
     pagecolor="#ffffff"
     bordercolor="#666666"
     borderopacity="1.0"
     inkscape:showpageshadow="2"
     inkscape:pageopacity="0.0"
     inkscape:pagecheckerboard="0"
     inkscape:deskcolor="#d1d1d1"
     showgrid="false"
     showguides="true"
     inkscape:zoom="0.10419379"
     inkscape:cx="3075.9991"
     inkscape:cy="945.35385"
     inkscape:window-width="1920"
     inkscape:window-height="1027"
     inkscape:window-x="0"
     inkscape:window-y="25"
     inkscape:window-maximized="1"
     inkscape:current-layer="svg5520">
    <sodipodi:guide
       position="-681.99354,364.91664"
       orientation="1,0"
       id="guide9073"
       inkscape:locked="false" />
    <sodipodi:guide
       position="-678.35312,346.18363"
       orientation="0,-1"
       id="guide9075"
       inkscape:locked="false" />
    <sodipodi:guide
       position="-1344.5544,452.12302"
       orientation="0,-1"
       id="guide9077"
       inkscape:locked="false" />
    <sodipodi:guide
       position="-1359.2385,423.08742"
       orientation="0,-1"
       id="guide9079"
       inkscape:locked="false" />
    <sodipodi:guide
       position="-1339.9844,350.70603"
       orientation="1,0"
       id="guide9081"
       inkscape:locked="false" />
    <sodipodi:guide
       position="-1410.9698,421.12227"
       orientation="1,0"
       id="guide9083"
       inkscape:locked="false" />
    <sodipodi:guide
       position="-1351.9887,393.07905"
       orientation="0,-1"
       id="guide9085"
       inkscape:locked="false" />
    <sodipodi:guide
       position="-1301.0079,349.11515"
       orientation="1,0"
       id="guide9087"
       inkscape:locked="false" />
    <sodipodi:guide
       position="-1214.9132,347.14995"
       orientation="1,0"
       id="guide9089"
       inkscape:locked="false" />
    <sodipodi:guide
       position="-1257.9606,348.31971"
       orientation="1,0"
       id="guide9091"
       inkscape:locked="false" />
    <sodipodi:guide
       position="-1247.6396,383.2629"
       orientation="0,-1"
       id="guide9154"
       inkscape:locked="false" />
    <sodipodi:guide
       position="-1279.9267,383.82572"
       orientation="1,0"
       id="guide9156"
       inkscape:locked="false" />
    <sodipodi:guide
       position="-5082.8367,448.29989"
       orientation="0,-1"
       id="guide9158"
       inkscape:locked="false" />
    <sodipodi:guide
       position="-1178.6721,482.16604"
       orientation="0,-1"
       id="guide9160"
       inkscape:locked="false" />
    <sodipodi:guide
       position="-1170.9507,472.71315"
       orientation="1,0"
       id="guide9162"
       inkscape:locked="false" />
    <sodipodi:guide
       position="-1210.0257,356.51754"
       orientation="1,0"
       id="guide9164"
       inkscape:locked="false" />
    <sodipodi:guide
       position="-1157.9766,351.14917"
       orientation="1,0"
       id="guide9166"
       inkscape:locked="false" />
    <sodipodi:guide
       position="-1120.8879,350.00547"
       orientation="1,0"
       id="guide9168"
       inkscape:locked="false" />
    <sodipodi:guide
       position="-1035.9679,352.17034"
       orientation="1,0"
       id="guide9170"
       inkscape:locked="false" />
    <sodipodi:guide
       position="-999.98204,342.32631"
       orientation="1,0"
       id="guide9172"
       inkscape:locked="false" />
    <sodipodi:guide
       position="-1071.4919,414.25373"
       orientation="0,-1"
       id="guide9174"
       inkscape:locked="false" />
    <sodipodi:guide
       position="813.70388,366.2544"
       orientation="0,-1"
       id="guide9176"
       inkscape:locked="false" />
    <sodipodi:guide
       position="-1079.8324,377.19824"
       orientation="1,0"
       id="guide9178"
       inkscape:locked="false" />
    <sodipodi:guide
       position="-7316.4959,6174.0894"
       orientation="0,-1"
       id="guide10279"
       inkscape:locked="false" />
    <sodipodi:guide
       position="-7309.5012,4278.506"
       orientation="0,-1"
       id="guide10281"
       inkscape:locked="false" />
    <sodipodi:guide
       position="-6622.6029,3632.1442"
       orientation="0,-1"
       id="guide10283"
       inkscape:locked="false" />
    <sodipodi:guide
       position="-6602.6823,1679.9339"
       orientation="0,-1"
       id="guide10285"
       inkscape:locked="false" />
    <sodipodi:guide
       position="-6961.2516,3472.7801"
       orientation="0,-1"
       id="guide10287"
       inkscape:locked="false" />
    <inkscape:page
       x="0"
       y="0"
       width="848.81525"
       height="1600.0001"
       id="page11159" />
    <inkscape:page
       x="2204.115"
       y="0.99056572"
       width="1599.9999"
       height="1600.0001"
       id="page11161" />
    <inkscape:page
       x="4577.8213"
       y="-117.02146"
       width="1600"
       height="1600.0001"
       id="page11321" />
    <inkscape:page
       x="6972.9199"
       y="-237.9769"
       width="1600"
       height="1600.0001"
       id="page11323" />
    <inkscape:page
       x="9974.5059"
       y="-130.73405"
       width="1599.9995"
       height="1600.0001"
       id="page11325" />
  </sodipodi:namedview>
  <path
     id="path9930-9"
     style="fill:#000000;stroke:none;stroke-width:35.5001;stroke-linecap:round;stroke-linejoin:round;paint-order:markers stroke fill"
     d="m 5377.8224,-117.02146 a 800.00069,800.00069 0 0 0 -800.0011,799.99902 800.00069,800.00069 0 0 0 800.0011,800.00104 800.00069,800.00069 0 0 0 799.999,-800.00104 800.00069,800.00069 0 0 0 -799.999,-799.99902 z m 64.5474,73.948166 a 729.26352,729.26352 0 0 1 51.7526,6.482764 l -4.0767,8.153452 -16.7179,19.7580405 -19.758,15.1966376 -34.9546,16.7178669 -27.3574,6.080263 -18.2369,1.519114 h -19.758 l -27.3574,-3.040174 -18.2368,-6.078232 -19.7581,-10.639635 -15.1988,-12.1563792 -12.1564,-13.6798088 -7.5994,-15.196722 -1.5506,-5.269167 a 729.26352,729.26352 0 0 1 45.0569,-3.941909 l 2.0879,3.130728 4.5593,4.559203 v 3.040174 l 6.0781,3.040173 13.6798,9.118491 19.7559,6.078232 9.1206,1.5211445 h 21.277 l 22.7961,-4.5592025 18.239,-7.599462 16.7177,-10.63955 z m 98.1433,15.525341 a 729.26352,729.26352 0 0 1 251.9283,111.003458 l -13.6335,23.371165 -18.2368,24.31512 -21.2771,25.83839 -10.6395,10.63744 -10.6375,12.15858 -15.1988,13.67769 -27.3553,19.75804 -22.7982,16.71778 -21.2771,13.67761 -34.9567,18.23901 -25.8363,12.15858 -44.0731,16.71787 -42.5562,12.15858 -37.9949,7.59946 -36.4758,4.55921 -19.7559,1.51902 h -97.2689 l -31.9144,-3.04025 -41.0352,-7.59718 -54.7147,-15.19884 -41.0329,-16.71787 -37.9971,-19.75795 -25.8362,-16.71778 -21.2771,-15.19884 -16.7177,-15.19672 -12.1586,-10.63956 -19.7581,-21.27707 -16.7178,-22.79601 -19.7559,-28.87645 -11.6404,-22.22095 A 729.26352,729.26352 0 0 1 5216.006,-25.78028 l 5.0333,20.1393006 10.6396,19.7580404 12.1586,15.198669 9.1185,10.637604 15.1966,12.158495 24.3172,13.679809 21.277,7.597264 27.3575,4.561318 h 50.1535 l 33.4356,-4.561318 19.758,-6.078232 24.3172,-12.158582 18.2368,-12.158665 19.7581,-18.236896 10.6375,-12.158495 13.6797,-21.2770695 z M 5909.287,183.61697 a 729.26352,729.26352 0 0 1 57.9783,70.00846 v 109.06085 c -0.3854,92.52613 0.7728,185.12639 -0.5794,277.60648 -1.4125,38.59877 -16.903,76.13543 -40.9297,106.10082 -31.7952,40.9118 -80.3365,66.67715 -131.0458,74.90474 -28.0652,4.59653 -57.0411,3.87632 -85.2198,0.44457 -37.4026,-6.78118 -74.1694,-21.90554 -103.2419,-46.79099 -27.3521,-22.26564 -48.526,-52.27833 -59.748,-85.71068 -6.4543,-25.17243 -12.6264,-50.9955 -10.8608,-77.21176 3.1051,-26.99334 6.2137,-55.35244 19.6759,-79.49552 15.3568,-34.95722 42.7375,-63.18556 74.5528,-83.75132 7.4798,-6.66937 24.6634,-5.26552 21.2771,-17.61114 -0.2198,-10.45488 14.8086,-13.65899 22.7245,-18.18417 8.4101,5.22059 17.148,8.33253 27.3089,1.38633 4.4094,-7.107 -3.6144,-20.32007 9.5335,-23.82216 8.8898,-7.50256 17.5458,-9.12136 27.3236,-5.59998 11.3776,3.89088 19.6271,-8.51508 13.6777,-17.76288 2.4418,-8.74189 14.6437,-18.06172 24.056,-14.15374 10.4089,2.68896 19.9219,-3.99125 18.2368,-15.19876 -5.1341,-10.55762 8.8097,-16.27542 14.4951,-22.95842 9.3353,-1.67144 20.4326,2.13844 25.5055,-9.09521 -0.1499,-9.8216 -3.6063,-18.80257 7.6541,-25.13257 4.54,-12.28942 21.69,-3.02325 26.816,-14.24438 0.4531,-9.98037 -3.1,-21.61898 7.5994,-27.3553 1.4675,-13.17889 16.3172,-9.22843 23.0952,-17.01695 3.693,-9.72597 -2.486,-22.84367 6.1984,-31.62804 0.4897,-2.98863 2.002,-5.07477 3.9166,-6.78828 z m -530.1879,233.25115 c 20.21,0.62872 40.4062,1.40579 60.2579,5.56622 23.3145,2.6628 44.7497,13.09366 65.0869,24.18242 17.0073,10.18822 31.915,23.71519 45.4931,38.0497 6.4834,7.38509 -3.8325,14.09966 -8.5517,19.16385 -17.106,15.73116 -33.9345,31.82319 -51.3522,47.22488 -5.8273,6.49411 -12.7856,-2.51868 -16.9834,-6.803 -8.9745,-9.86654 -20.9267,-16.52076 -32.1968,-23.31852 -15.3343,-6.92868 -31.9698,-11.04899 -48.8788,-9.83895 -18.3018,-0.72105 -36.8817,3.21967 -53.2969,11.28638 -11.0531,7.83575 -22.6546,15.05903 -30.7305,26.20712 -6.236,9.34065 -11.4825,19.74983 -16.0499,30.01193 -5.078,16.03744 -8.1991,32.63056 -7.0243,49.51304 1.4032,15.47862 4.9215,30.81143 11.358,45.04015 7.7334,15.57071 17.2329,31.6128 33.322,39.70557 10.9595,7.61317 22.8855,14.13681 36.3915,15.36945 17.4351,4.48634 35.6706,4.33959 53.004,-0.47613 19.7218,-2.49363 35.6598,-15.47024 51.3397,-26.68113 4.8685,-3.44099 8.4338,-13.65011 14.1516,-12.68109 13.8124,8.29758 24.3872,21.21275 36.5623,31.72916 10.3188,9.49975 21.0386,18.55934 31.3562,28.06527 -0.2096,10.75414 -11.2214,15.72735 -17.274,23.35432 -10.0465,10.58996 -22.8636,18.16936 -34.8958,26.22811 -22.3483,11.29544 -45.9975,20.44101 -70.887,24.02442 -22.1706,3.70055 -44.8419,2.36034 -67.202,2.01624 -15.1272,-1.14497 -30.023,-3.46638 -44.3871,-8.48639 -19.9076,-5.56097 -38.6592,-14.98244 -56.5203,-25.26104 -22.7037,-16.59329 -44.4139,-35.50791 -58.623,-60.13575 -8.5284,-12.81988 -14.3959,-27.36968 -19.5346,-41.80829 -6.6064,-20.88235 -11.9625,-42.47052 -10.6291,-64.54735 -0.9934,-21.71613 2.2041,-43.40349 9.1606,-63.98498 4.4677,-15.91524 11.5663,-31.16054 19.7432,-45.4909 11.3297,-19.83014 27.5925,-36.1698 44.3597,-51.37972 15.9718,-12.13675 33.9295,-21.25405 51.9547,-29.83294 15.0119,-5.427 30.1814,-10.21403 46.1442,-11.75836 11.6945,-2.15808 23.4674,-3.4949 35.3318,-4.25369 z m -290.0663,7.32966 c 3.9471,0.0968 8.1907,0.90901 11.832,0.2676 h 97.3784 c 0.7804,8.18578 -7.683,13.45977 -11.0462,20.33953 -39.8558,56.41997 -79.8253,112.78112 -121.1773,168.1179 10.0941,18.08947 23.9171,33.92075 35.5425,51.08251 14.7488,20.77233 28.8295,42.0092 44.5345,62.07826 19.5598,29.25542 41.1964,57.03861 61.265,85.93402 1.9813,8.78834 -10.7837,2.83181 -15.8624,4.5592 h -108.7618 c -22.6102,-29.92705 -41.766,-62.2449 -63.0748,-93.09298 -6.2067,-8.58633 -10.8684,-18.44077 -18.9953,-25.45281 -24.8584,39.7412 -51.4146,78.46658 -76.7903,117.82745 -13.2403,1.67525 -27.7687,0.24085 -41.5049,0.71834 h -83.8398 c 2.3914,-11.37609 12.4646,-19.13542 18.3211,-28.88059 28.6389,-39.51338 56.6617,-79.46945 85.2683,-119.0094 10.8324,-15.71373 22.4176,-30.89708 33.1933,-46.64559 -0.022,-12.00134 -10.321,-19.74518 -16.0057,-29.40107 -24.6067,-35.48176 -49.8649,-70.49686 -74.4201,-106.0123 -13.5269,-19.12848 -26.5979,-38.57711 -40.2766,-57.60124 v -4.56123 h 121.5839 c 11.1711,11.93279 18.6129,26.93274 28.6405,39.86357 16.6126,23.44183 31.8441,48.01754 49.7532,70.44668 4.4242,-2.56024 8.3848,-11.0231 12.6306,-15.85608 20.5194,-30.26751 40.6247,-60.88607 61.758,-90.69557 2.4557,-3.50403 6.1068,-4.12276 10.0539,-4.0262 z m 662.3145,81.31159 a 111.94077,110.72985 0 0 0 -111.9389,110.73171 111.94077,110.72985 0 0 0 111.9389,110.72748 111.94077,110.72985 0 0 0 111.9388,-110.72748 111.94077,110.72985 0 0 0 -111.9388,-110.73171 z m -101.1939,365.69168 c 34.3954,0.64183 87.6215,16.8063 87.6215,16.8063 l -16.7177,44.0752 c 0,0 -46.0579,-20.66739 -70.1391,-19.41673 -9.7287,0.50533 -26.5338,5.46907 -29.5063,15.90043 -2.5753,9.0369 1.5328,17.12934 8.0734,19.68847 17.6498,6.906 42.5109,6.19198 59.6553,11.18313 41.7906,12.16645 61.1161,32.30626 57.7528,69.91145 -2.8971,32.3951 -47.281,51.3829 -81.9309,52.9914 -37.8212,1.7558 -78.0792,-10.0614 -95.8868,-18.0346 l 16.7178,-42.5562 c 0,0 43.7025,23.3396 81.0946,19.2124 8.7078,-0.9612 23.6355,-5.1317 23.976,-16.1258 0.2984,-9.6388 -2.9754,-14.3217 -10.6164,-17.4658 -25.6479,-10.5536 -55.7478,-8.54041 -80.7766,-20.57543 -14.5266,-6.98513 -25.5956,-19.44034 -27.3552,-34.95679 -5.9427,-52.40139 22.1138,-78.0981 71.4305,-80.54891 2.1043,-0.1046 4.314,-0.13126 6.6071,-0.0885 z m -146.3753,4.2916 v 0 h 59.3161 l -0.071,206.52575 h -59.3603 c -2e-4,0 0.1137,-206.52567 0.1137,-206.52575 z m -75.1133,0.008 53.7814,0.34978 1.4369,206.42667 -54.7148,0.093 0.037,-103.41861 -48.3986,76.44891 c 0,0 -4.0086,7.1667 -18.1546,7.3866 -12.035,0.1873 -16.9896,-7.5994 -16.9896,-7.5994 l -45.5101,-76.24254 -0.01,103.47354 -56.3455,0.025 0.037,-206.5931 h 56.354 l 62.1899,110.20911 z m -628.6113,0.34978 h 161.1 v 45.60912 l -101.826,-0.0152 v 44.1005 l 91.1211,-0.0254 c 0.08,15.28406 0,45.63435 0,45.63435 l -91.1211,-0.041 -0.091,71.321 h -59.137 z m 168.6973,0 h 106.3874 c 48.2379,0.20193 78.5254,34.4959 79.0299,74.47067 0.5043,39.97495 -39.5161,65.3522 -39.5161,65.3522 l 42.4572,66.8713 -65.2533,-0.1243 -33.4356,-56.4234 -31.9777,0.011 0.061,55.0181 -9.1184,1.5191 -48.6345,-1.5191 -1.5189,-1.5211 V 904.72776 Z m 196.0568,0 h 59.3162 l -0.072,206.52567 h -59.3604 z m 653.5163,0 h 57.7529 l 91.1885,206.55737 -59.2719,0.1368 -16.7179,-41.0349 h -88.1503 l -15.4011,40.9444 c 0,0 -40.5276,-0.3836 -60.7762,-0.025 z m -755.3992,45.51637 c -0.9317,0.0271 -1.4642,0.0779 -1.4642,0.0779 h -34.9568 v 59.27403 h 45.5942 c 0,-8e-5 23.0105,-4.71492 23.2111,-30.64623 0.216,-27.90142 -25.8616,-28.89397 -32.3843,-28.70575 z m 784.2819,8.91614 -25.8425,68.67265 h 50.1535 z" />
  <g
     id="g11349"
     transform="scale(0.97923282)">
    <path
       id="rect11318"
       style="fill:none;stroke:#000000;stroke-width:16.389;stroke-linecap:round;stroke-linejoin:round;paint-order:markers stroke fill"
       d="m 14.87214,8.1945 h 837.07222 c 3.6995,0 6.6777,2.978228 6.6777,6.677641 V 1619.0601 c 0,3.6994 -2.9782,6.6776 -6.6777,6.6776 H 14.87214 c -3.69941,0 -6.67764,-2.9782 -6.67764,-6.6776 V 14.872141 c 0,-3.699413 2.97823,-6.677641 6.67764,-6.677641 z" />
    <g
       id="g7506"
       transform="translate(-581.62387,-181.53405)">
      <path
         d="m 1095.0368,1625.7659 h 39.0295 l -0.047,135.8891 h -39.059 c -10e-5,0 0.076,-135.8891 0.076,-135.8891 z"
         fill="#fefefe"
         id="path5504-6"
         sodipodi:nodetypes="ccccc"
         style="fill:#000000" />
      <path
         transform="translate(631,235)"
         d="m 0,0 h 503 l 266,1 v 719 l -5,1 -8,-2 -3,-5 -6,-16 v -5 l 3,-3 -1,-7 -4,-4 -8,-3 -7,-12 1,-5 1,-6 -3,-4 v -2 l -11,-2 -8,-10 v -6 l 1,-2 v -6 l -5,-5 -10,1 -8,-8 -2,-5 2,-6 -5,-6 -5,-2 -3,2 -5,-1 -9,-8 -2,-10 -5,-2 h -11 l -3,-3 v -2 l -8,-4 -3,-10 -5,-4 h -6 l -4,2 -11,-5 -6,-11 -2,-2 -17,1 -2,-2 -3,-15 -1,-9 v -13 l 3,-16 v -7 l -5,-5 -4,-3 v -39 l -1,-11 3,-3 -1,-10 -1,-5 v -10 l 2,-6 v -5 l -5,-7 v -12 l 1,-21 2,-7 5,-4 3,-5 -1,-6 -4,-16 -1,-17 2,-6 12,-11 3,-2 h 25 l 6,-4 7,-8 7,-16 v -13 l -7,-20 -6,-11 -4,-5 -15,-9 -9,-16 -11,-13 -11,-9 -10,-5 -7,-2 h -16 l -12,4 -6,1 -9,-10 -8,-11 L 487,99 476,86 464,72 454,59 443,47 l -10,-7 -16,-8 -12,-3 -15,-1 -6,5 -8,14 -3,8 -1,11 3,14 9,17 6,10 3,6 v 3 l -11,-1 -5,3 -13,-1 -12,-3 h -19 l -15,3 -11,1 -22,-1 -12,4 -7,4 h -6 l -2,-4 -11,-4 h -9 l -7,-3 -2,-1 h -8 l -7,3 -33,1 -13,4 -15,9 -6,5 -7,8 -8,9 -10,17 -4,13 -2,15 v 8 l 3,22 5,16 5,11 v 4 l -21,4 -19,5 -27,7 -8,1 -5,-4 h -6 l -6,3 H 27 l -6,-3 h -5 l -5,4 H 1 l -2,-4 V 1 Z"
         fill="#fefefe"
         id="path5472"
         style="fill:#000000" />
      <path
         d="m 0,0 h 14 l -2,5 -6,9 -10,17 -10,16 -12,19 -15,24 -7,11 -2,3 1,8 3,5 2,4 -8,14 -9,18 1,4 1,2 v 6 l -5,5 -9,14 -7,14 -4,16 -1,6 v 18 l 4,16 7,13 8,10 6,7 10,8 16,9 14,5 18,3 h 33 l 22,-3 13,-4 16,-8 12,-8 13,-12 7,-8 9,-14 7,-14 4,-16 1,-7 v -11 l -4,-18 -4,-9 -7,-12 -7,-9 -1,-3 -4,-2 -10,-9 -14,-8 -7,-2 1,-5 8,-14 28,-50 10,-18 18,-32 11,3 19,7 29,14 24,14 11,8 9,7 11,9 17,17 15,20 10,16 6,12 11,31 4,16 2,19 v 22 l -2,20 -5,20 -7,20 -7,16 -14,24 -12,16 -14,17 -7,7 -7,8 -10,9 -18,13 -15,11 -14,9 -23,12 -17,8 -29,11 -28,8 -25,5 -24,3 -13,1 h -64 l -21,-2 -27,-5 -36,-10 -27,-11 -25,-13 -17,-11 -14,-10 -11,-10 -8,-7 -13,-14 -11,-15 -13,-19 -11,-21 -5,-17 -5,-24 -1,-8 v -37 l 4,-23 6,-24 13,-29 12,-20 9,-12 8,-10 18,-20 13,-12 15,-11 19,-13 14,-10 24,-13 19,-8 14,-6 27,-8 23,-6 z"
         fill="#fefefe"
         id="path5474"
         style="fill:#000000"
         transform="translate(990,792)" />
      <path
         id="path5476"
         d="m 1398,1099.0003 c -4.219,6.0287 -11.114,9.5272 -13.0719,17.1438 -4.9715,6.1601 3.6857,17.8415 -5.8312,21.1968 -4.9552,5.4745 -9.5226,14.4502 -5.0969,21.6594 0.4799,9.2837 -13.2859,7.2101 -14.725,15.9938 -5.7142,5.7799 -1.6482,14.4098 -4.0781,20.8093 -4.4599,5.1247 -14.2313,2.5254 -15.1969,11.1969 -7.04,3.7743 -4.7019,11.4331 -5,18 -3.3728,7.3832 -14.6565,1.2857 -17.6437,9.3719 -7.4091,4.165 -5.1361,10.0751 -5.0375,16.5375 -3.3379,7.3915 -10.6388,4.8845 -16.7813,5.9844 -3.7409,4.3972 -12.9157,8.1595 -9.5375,15.1062 1.1088,7.3743 -5.1511,11.7693 -12,10 -6.1931,-2.5713 -14.2214,3.5605 -15.8281,9.3125 3.9146,6.0848 -1.5138,14.2476 -9,11.6875 -6.4336,-2.3171 -12.1288,-1.2521 -17.9781,3.6844 -8.651,2.3043 -3.3705,10.9988 -6.2719,15.675 -6.6856,4.5705 -12.4351,2.5226 -17.9688,-0.9125 -5.2085,2.9775 -15.0978,5.0865 -14.9531,11.9656 2.2281,8.1232 -9.0785,7.1992 -14,11.5875 -20.9338,13.5319 -38.9486,32.1052 -49.0531,55.1063 -8.8578,15.8857 -10.9038,34.5452 -12.9469,52.3062 -1.1618,17.2498 2.9001,34.2402 7.1469,50.8031 7.3838,21.9979 21.3154,41.7465 39.3125,56.3969 19.1291,16.3741 43.3211,26.3256 67.9312,30.7875 18.5411,2.258 37.6056,2.7307 56.0719,-0.2937 33.3657,-5.4136 65.3044,-22.3653 86.225,-49.2844 15.809,-19.7167 26.0019,-44.4154 26.9313,-69.8125 0.8897,-60.8501 0.1275,-121.7791 0.3812,-182.6594 v -187.35 c -0.6666,-0.6667 -1.3333,-1.3333 -2,-2 z m -140.0687,283.325 a 73.654564,72.857796 0 0 1 73.6531,72.8594 73.654564,72.857796 0 0 1 -73.6531,72.8562 73.654564,72.857796 0 0 1 -73.6532,-72.8562 73.654564,72.857796 0 0 1 73.6532,-72.8594 z" />
      <path
         transform="translate(1044,674)"
         d="m 0,0 h 6 l 3,8 6,15 1,7 -7,11 -11,18 -2,1 h -10 l -5,-4 -4,-1 -7,4 -4,3 -9,-1 -5,-2 h -6 l -7,5 -15,2 -5,-3 -5,1 -5,4 -13,3 -8,1 -5,-3 -4,1 -3,5 -13,5 h -6 l -3,-2 h -7 l -7,9 -10,4 -1,1 h -5 l -7,-2 -5,4 -6,7 -7,3 -4,1 -5,-2 h -5 l -5,6 -2,6 -6,3 -11,-1 -6,3 -2,3 -2,8 -2,1 h -15 l -4,4 -1,5 v 5 l -9,5 -10,1 -4,4 -1,9 -10,9 -1,1 -9,1 -4,3 -1,9 -12,12 -9,2 h -2 l -1,14 -9,11 -12,6 v 12 l -8,14 -2,2 -8,3 -3,4 v 6 l 2,3 -1,7 -7,10 -8,5 -1,5 3,5 v 6 l -4,8 -7,3 -3,12 -2,-1 V 9 l 1,-1 15,-1 5,5 12,16 5,6 14,7 4,1 15,1 5,7 v 2 l 28,5 27,3 3,-3 1,-2 v -6 l -3,-4 v -3 l 12,-9 2,-4 -1,-8 1,-1 37,-2 71,-6 76,-6 74,-5 z"
         fill="#fefefe"
         id="path5480"
         style="fill:#000000" />
      <path
         d="m 635,1329 c 26.66667,0 53.33333,0 80,0 7.35032,7.8515 12.24661,17.7202 18.84464,26.2286 10.93073,15.4242 20.95285,31.5948 32.7367,46.3527 2.91097,-1.6846 5.5172,-7.253 8.31084,-10.433 13.50144,-19.9155 26.72969,-40.0614 40.63493,-59.6754 3.23145,-4.6112 9.60834,-1.6287 14.40014,-2.4729 21.35758,0 42.71517,0 64.07275,0 0.5134,5.3861 -5.0545,8.8552 -7.26732,13.3819 C 860.50816,1379.5052 834.20889,1416.5895 807,1453 c 6.64165,11.9027 15.7369,22.3195 23.38633,33.6118 9.70439,13.6677 18.96933,27.6401 29.30295,40.8453 12.86988,19.2494 27.10608,37.5302 40.31072,56.5429 1.30369,5.7825 -7.09441,1.8632 -10.43634,3 -23.85455,0 -47.70911,0 -71.56366,0 -14.877,-19.6915 -27.48151,-40.9558 -41.50215,-61.2532 -4.08388,-5.6496 -7.15058,-12.133 -12.49785,-16.7468 -16.35643,26.149 -33.83049,51.6283 -50.52711,77.5271 -8.71178,1.1023 -18.27108,0.1585 -27.3092,0.4729 -18.38789,0 -36.77579,0 -55.16369,0 1.57356,-7.4854 8.20162,-12.5912 12.05505,-19.0033 18.84398,-25.9991 37.28112,-52.2882 56.10363,-78.3048 7.12748,-10.3393 14.75095,-20.3298 21.84132,-30.6919 -0.0145,-7.8966 -6.7919,-12.9919 -10.53229,-19.3452 -16.19089,-23.3464 -32.81024,-46.3854 -48.967,-69.7538 C 652.60019,1357.3147 644.00031,1344.5174 635,1332 c 0,-1 0,-2 0,-3 z"
         fill="#fefefe"
         id="path5482"
         style="fill:#000000" />
      <path
         d="m 1013,1324 c 13.2977,0.4137 26.5853,0.9261 39.6474,3.6636 15.3404,1.752 29.4448,8.6143 42.8262,15.9105 11.1906,6.7036 20.999,15.604 29.933,25.0358 4.266,4.8593 -2.5211,9.2778 -5.6263,12.6099 -11.2555,10.3508 -22.3285,20.9394 -33.7891,31.0735 -3.8342,4.273 -8.4123,-1.6574 -11.1743,-4.4764 -5.9052,-6.492 -13.7697,-10.8704 -21.1852,-15.3432 -10.0896,-4.5589 -21.035,-7.2699 -32.1608,-6.4737 -12.0422,-0.4744 -24.26658,2.1184 -35.06737,7.4261 -7.27268,5.1558 -14.90753,9.9087 -20.22128,17.2439 -4.10316,6.146 -7.55471,12.9943 -10.55999,19.7465 -3.34122,10.5523 -5.39523,21.4702 -4.62226,32.5786 0.92326,10.1846 3.23815,20.2732 7.47327,29.6354 5.08834,10.2452 11.33954,20.8011 21.92578,26.126 7.21116,5.0093 15.05831,9.3012 23.94495,10.1123 11.4719,2.9519 23.4701,2.8561 34.8751,-0.3126 12.9766,-1.6409 23.4639,-10.1797 33.7809,-17.5562 3.2034,-2.2642 5.549,-8.982 9.3112,-8.3444 9.0882,5.4596 16.0467,13.9582 24.0577,20.8777 6.7896,6.2507 13.8424,12.212 20.6311,18.4667 -0.1379,7.076 -7.3836,10.3479 -11.3662,15.3663 -6.6103,6.9679 -15.0434,11.9553 -22.9603,17.2579 -14.7047,7.4321 -30.2649,13.4495 -46.6416,15.8073 -14.5879,2.4349 -29.5051,1.5521 -44.2175,1.3257 -9.95336,-0.7535 -19.75441,-2.2803 -29.20563,-5.5833 -13.09879,-3.6591 -25.43761,-9.8577 -37.18977,-16.6208 -14.93871,-10.918 -29.22262,-23.3641 -38.57191,-39.5687 -5.61146,-8.4352 -9.47282,-18.0082 -12.85395,-27.5084 -4.34681,-13.7403 -7.87046,-27.945 -6.99314,-42.4711 -0.65365,-14.2887 1.45022,-28.5587 6.02744,-42.1009 2.93965,-10.472 7.60934,-20.5031 12.98958,-29.9324 7.45478,-13.0477 18.15592,-23.7983 29.18832,-33.8061 10.50919,-7.9857 22.32511,-13.9844 34.18544,-19.6291 9.87748,-3.5709 19.85818,-6.7205 30.3614,-7.7367 7.69477,-1.4201 15.44132,-2.3004 23.24782,-2.7997 z"
         fill="#fefefe"
         id="path5484"
         style="fill:#000000" />
      <path
         transform="translate(924,1626)"
         d="M 0,0 H 37.07966 L 78,72.515045 121.61302,-0.23089364 157,0 l 0.94471,135.82444 -36,0.0601 0.0244,-68.04718 -31.845673,50.30213 c 0,0 -2.636731,4.71574 -11.944535,4.86047 C 70.260099,123.12314 67,118 67,118 l -29.944714,-50.165858 -0.0061,68.082408 -37.07371311,0.0171 z"
         fill="#fefefe"
         id="path5488"
         sodipodi:nodetypes="cccccccccsccccc"
         style="fill:#000000" />
      <path
         id="path5490"
         d="m 2.5e-5,3.12e-4 -1,19 V 134.00031 l 1,1 32,1 6,-1 -0.04023,-36.201135 21.040227,-0.0057 22,37.125235 42.935808,0.0816 -27.935808,-43.999999 c 0,0 26.331888,-16.697403 25.999998,-43 -0.33189,-26.302597 -20.2604,-48.86722556 -51.999998,-49 z m 38,30 h 23 c 0,0 22.433846,-2.145554 22.271476,18.835581 -0.132042,17.062261 -15.271476,20.164419 -15.271476,20.164419 h -30 z"
         transform="translate(743,1626)"
         style="fill:#000000"
         sodipodi:nodetypes="ccccccccccczccccsccc" />
      <path
         id="path5492"
         d="m 2.5e-5,3.12e-4 -60.12358,135.924158 c 13.323123,-0.23578 39.989269,0.016 39.989269,0.016 l 10.134311,-26.94018 h 58 l 11,27 39,-0.0899 -60,-135.910108 z m 19.0034,35.815383 15.9966,45.184617 h -33 z"
         transform="translate(1302,1626)"
         sodipodi:nodetypes="ccccccccccccc" />
      <path
         transform="translate(1187,1623)"
         d="M 0,0 C 22.153399,-1.100969 62,11 62,11 L 51,40 C 51,40 20.696066,26.402352 4.8511884,27.225333 c -6.4013602,0.332486 -17.4599364,3.598136 -19.4158264,10.461739 -1.694431,5.946094 1.009363,11.2702 5.3129279,12.954087 C 2.3614879,55.18514 18.719358,54.71589 30,58 57.497311,66.005236 70.212919,79.25653 68,104 66.093682,125.31525 36.890812,137.80813 14.091826,138.86649 -10.793724,140.02172 -37.282985,132.24618 -49,127 l 11,-28 c 0,0 28.7556964,15.35685 53.358841,12.64116 5.729609,-0.63243 15.550622,-3.37673 15.774666,-10.61055 C 31.329935,94.688458 29.176438,91.60702 24.148812,89.538261 7.2730979,82.59427 -12.531586,83.918801 -29,76 -38.558215,71.403954 -45.842152,63.209545 -47,53 -50.910207,18.521009 -32.449322,1.6126508 0,0 Z"
         fill="#fefefe"
         id="path5494"
         sodipodi:nodetypes="sccssssssccssssss"
         style="fill:#000000" />
      <path
         transform="translate(632,1626)"
         d="M 0,0 H 106 L 105.999,30.009421 39,30 V 59.017425 L 98.956019,59 c 0.0527,10.056525 0,30.026556 0,30.026556 L 39,89 38.94017,135.9273 H 0.02990884 Z"
         fill="#fefefe"
         id="path5496"
         sodipodi:nodetypes="ccccccccccc"
         style="fill:#000000" />
      <path
         transform="translate(1000,935)"
         d="m 0,0 h 4 l -2,4 -6,9 -15,7 -10,6 -11,10 -6,10 -4,12 v 13 l 4,11 6,9 3,3 v 2 l 4,2 9,6 13,4 6,1 H 9 l 15,-3 12,-5 11,-7 10,-10 5,-8 3,-11 V 52 l -4,-16 -5,-8 -5,-5 -4,-3 1,-6 6,-10 5,2 15,8 10,9 8,11 4,13 1,8 v 9 l -3,16 -8,16 -11,13 -13,10 -23,11 -18,4 -12,1 H -4 l -18,-2 -12,-4 -13,-7 -10,-8 -8,-9 -5,-10 -5,-17 V 67 l 5,-17 9,-16 2,-2 7,-1 6,-11 7,-6 14,-7 z"
         fill="#fefefe"
         id="path5498"
         style="fill:#000000" />
      <path
         transform="translate(1127,488)"
         d="m 0,0 4,1 7,10 5,5 8,4 10,-1 h 9 l 5,5 2,4 1,6 v 33 l 4,5 v 12 l -5,26 -1,3 -6,-2 -4,-4 2,-4 5,-4 -1,-8 -5,-10 -6,-5 -2,-1 h -9 l -5,3 -2,9 -7,6 -4,2 1,10 -7,11 -4,3 -4,1 v 10 l -7,6 -5,-2 -2,-8 v -9 l 7,-32 2,-15 V 43 l -5,-24 1,-7 6,-10 h 9 z"
         fill="#fefefe"
         id="path5500"
         style="fill:#000000" />
      <path
         transform="translate(872,1626)"
         d="M 0,0 H 39.029522 L 38.98273,135.88913 H -0.07631462 C -0.07631862,135.88913 0,0 0,0 Z"
         fill="#fefefe"
         id="path5504"
         sodipodi:nodetypes="ccccc"
         style="fill:#000000" />
      <path
         transform="translate(933,544)"
         d="m 0,0 15,2 16,5 21,4 8,1 h 14 l 10,-2 1,1 4,23 6,20 4,10 v 5 L 88,68 29,59 25,55 17,39 13,33 8,17 3,8 -2,4 V 1 Z"
         fill="#fefefe"
         id="path5506"
         style="fill:#000000" />
      <path
         transform="translate(1064,792)"
         d="m 0,0 18,2 2,2 -12,23 -6,11 -12,21 -20,36 -13,23 -4,6 -1,1 -20,3 -10,3 -4,-1 10,-15 6,-10 8,-13 24,-38 12,-20 9,-16 6,-10 5,-7 z"
         fill="#fefefe"
         id="path5508"
         style="fill:#000000" />
      <path
         transform="translate(807,577)"
         d="m 0,0 h 11 l 5,8 3,3 -1,5 -11,11 -9,3 -12,2 -2,4 -6,10 -3,1 -19,-6 -5,-1 h -10 l -3,2 -5,-1 -3,-9 7,-8 5,-10 1,-13 10,1 h 34 z"
         fill="#fefefe"
         id="path5510"
         style="fill:#000000" />
      <path
         transform="translate(1174,656)"
         d="M 0,0 4,2 9,20 V 46 L 4,49 V 98 H 1 l -7,-6 h -7 l -6,1 -2,-3 -3,-16 V 67 L -11,46 0,27 1,22 -7,10 -6,5 Z"
         fill="#fefefe"
         id="path5512"
         style="fill:#000000" />
      <path
         transform="translate(630,586)"
         d="m 0,0 9,3 22,9 1,3 -10,6 -12,9 -4,1 -6,-5 z"
         fill="#fefefe"
         id="path5518"
         style="fill:#000000" />
    </g>
  </g>
  <g
     id="g11380"
     transform="matrix(0.82431524,0,0,0.82431524,1752.3688,-22.96798)">
    <path
       id="rect9552"
       style="fill:none;stroke:#000000;stroke-width:48;stroke-linecap:round;stroke-linejoin:round;paint-order:markers stroke fill"
       d="m 10006.131,-106.73405 h 1877.756 c 4.224,0 7.624,3.4005 7.624,7.624397 V 1778.6467 c 0,4.2239 -3.4,7.6243 -7.624,7.6243 h -1877.756 c -4.224,0 -7.6244,-3.4004 -7.6244,-7.6243 V -99.109653 c 0,-4.223897 3.4004,-7.624397 7.6244,-7.624397 z" />
    <g
       id="g9805"
       transform="translate(12587.779,112.36209)">
      <path
         id="rect9552-4"
         style="fill:#000000;stroke:none;stroke-width:12.3243;stroke-linecap:round;stroke-linejoin:round;stroke-dasharray:none;stroke-opacity:1;paint-order:markers stroke fill"
         d="m -1830.7906,-103.13438 -7.0094,23.837505 V -55.6 l 10.7719,36.621875 10.7718,21.54375 17.2344,19.3875 21.5406,17.234375 28.0063,15.078125 25.85,8.61875 38.7781,4.309375 h 28.0063 l 25.85,-2.15625 38.7781,-8.615625 49.5469,-23.696875 28.0062,-21.54375 23.6969,-28.00625 17.2344,-34.46875 6.4625,-34.465625 v -17.375005 h -68.9375 v 19.52813 l -6.4625,23.696875 -10.7719,17.234375 -21.5406,21.54375 -23.6969,15.078125 -25.8531,10.771875 -32.3125,6.4625 H -1687 l -12.9281,-2.153125 -28.0032,-8.61875 -19.3906,-12.925 -8.6156,-4.309375 v -4.30625 l -6.4625,-6.465625 -12.925,-19.3875 -8.6188,-23.696875 V -98.6875 l 1.4813,-4.44688 z" />
      <path
         id="rect9552-5"
         style="fill:#000000;stroke:none;stroke-width:12.3243;stroke-linecap:round;stroke-linejoin:round;stroke-dasharray:none;stroke-opacity:1;paint-order:markers stroke fill"
         d="m -2284.7781,-103.13438 -5.4188,21.681255 -8.6156,49.55 v 79.70625 l 2.1531,17.234375 10.7719,51.70313 10.7719,36.62187 23.6968,45.24063 28.0032,40.93125 23.6968,32.3125 28.0063,30.15937 17.2344,15.08125 23.6969,21.54375 30.1593,21.54063 36.625,23.69687 53.8563,28.00625 58.1656,23.69688 77.5531,21.54375 58.1656,10.77187 45.2375,4.30625 h 137.875 l 28.0063,-2.15312 51.7,-6.46251 53.8562,-10.77187 60.3219,-17.23437 62.4719,-23.69688 36.625,-17.23438 49.5469,-25.84999 30.1593,-19.39063 32.3157,-23.69688 38.775,-28.00312 21.5437,-19.39063 15.0781,-17.23437 15.0813,-15.07812 30.1594,-36.62188 25.85,-34.46875 30.1625,-51.70313 15.0781,-34.468745 15.0812,-43.084375 10.7719,-43.084375 4.3063,-43.0875 v -47.39375 l -1.6,-15.218755 h -401.5188 l 2.425,10.90938 v 23.696875 l -2.1531,15.08125 -8.6188,34.46875 -15.0781,30.159375 -19.3875,30.159375 -15.0812,17.234375 -28.0063,25.85 -25.85,17.23438 -34.4687,17.23437 -28.0063,8.61875 -47.3937,6.4625 h -71.0907 l -38.7781,-6.4625 -30.1594,-10.77187 -34.4687,-19.387505 -21.5406,-17.234375 -12.925,-15.08125 -17.2344,-21.54375 -15.0813,-28.003125 -8.6156,-34.46875 V -57.75625 l 2.1531,-12.925 8.1125,-32.45313 z" />
      <path
         d="m -1471.495,1264.4616 h 84.08 l -0.1012,292.7417 h -84.1437 c -2e-4,0 0.1638,-292.7417 0.1638,-292.7417 z"
         fill="#fefefe"
         id="path5504-6-7"
         sodipodi:nodetypes="ccccc"
         style="fill:#000000;stroke-width:2.15427" />
      <path
         id="path5476-9"
         d="m -818.83076,129.6667 c -9.08886,12.98744 -23.94255,20.52415 -28.16039,36.93236 -10.70995,13.27051 7.93999,38.43539 -12.56197,45.66361 -10.67484,11.79355 -20.51425,31.12962 -10.9801,46.66018 1.03383,19.99959 -28.6214,15.5325 -31.72161,34.45495 -12.30993,12.45146 -3.55067,31.04259 -8.78533,44.82883 -9.60782,11.03999 -30.65805,5.4404 -32.73821,24.12114 -15.16606,8.13086 -10.12916,24.62998 -10.77135,38.77685 -7.26592,15.9054 -31.57404,2.76974 -38.00928,20.18959 -15.9612,8.97253 -11.0645,21.70448 -10.8521,35.62623 -7.1908,15.92328 -22.9189,10.52253 -36.1515,12.89201 -8.0589,9.47275 -27.8239,17.57776 -20.5463,32.54282 2.3886,15.88623 -11.0969,25.35424 -25.8512,21.54269 -13.3416,-5.53927 -30.6368,7.67028 -34.098,20.06163 8.4331,13.1083 -3.2612,30.69317 -19.3885,25.17802 -13.8597,-4.99165 -26.1287,-2.69736 -38.7296,7.93719 -18.6366,4.96409 -7.261,23.69438 -13.5114,33.76817 -14.4026,9.84609 -26.7885,5.43436 -38.7096,-1.96577 -11.2205,6.41434 -32.5247,10.95769 -32.213,25.77713 4.7999,17.49956 -19.5575,15.50901 -30.1598,24.96259 -45.097,29.15136 -83.9058,69.16324 -105.6736,118.71381 -19.0821,34.22207 -23.4897,74.41966 -27.8911,112.68163 -2.5028,37.16071 6.2476,73.76261 15.3964,109.44354 15.9067,47.3894 45.9191,89.9332 84.6897,121.4941 41.2092,35.2742 93.3253,56.7124 146.3421,66.3246 39.9425,4.8643 81.0126,5.8826 120.7939,-0.6327 71.87874,-11.6624 140.6833,-48.1809 185.7519,-106.1719 34.05684,-42.4751 56.01509,-95.68272 58.01727,-150.39491 1.91666,-131.0875 0.27467,-262.34496 0.82121,-393.49752 V 133.97524 c -1.43604,-1.43626 -2.87229,-2.87229 -4.30854,-4.30854 z m -301.74564,610.35832 a 158.67176,156.95531 0 0 1 158.66856,156.95876 158.67176,156.95531 0 0 1 -158.66856,156.95182 158.67176,156.95531 0 0 1 -158.6689,-156.95182 158.67176,156.95531 0 0 1 158.6689,-156.95876 z"
         style="stroke-width:2.15427" />
      <path
         d="m -2462.5382,625.14797 c 57.4472,0 114.8944,0 172.3416,0 15.8345,16.91424 26.3825,38.17408 40.5964,56.50346 23.5477,33.22788 45.1381,68.06371 70.5237,99.8562 6.271,-3.62909 11.8855,-15.62492 17.9038,-22.47549 29.0857,-42.90335 57.5829,-86.30304 87.5385,-128.55688 6.9614,-9.93377 20.699,-3.50866 31.0218,-5.32729 46.01,0 92.02,0 138.03,0 1.106,11.60311 -10.8888,19.07648 -15.6558,28.82821 -56.4947,79.97358 -113.1504,159.86315 -171.7657,238.30117 14.3079,25.64162 33.9016,48.08221 50.3805,72.40886 20.9059,29.44391 40.865,59.54419 63.1264,87.99179 27.7252,41.4684 58.3938,80.8501 86.8402,121.8086 2.8085,12.4571 -15.2833,4.0138 -22.4827,6.4628 -51.3891,0 -102.7783,0 -154.1674,0 -32.0491,-42.4208 -59.2026,-88.2298 -89.4068,-131.9559 -8.7978,-12.1707 -15.4043,-26.1377 -26.9237,-36.0771 -35.2362,56.332 -72.88,111.2213 -108.849,167.0143 -18.7675,2.3746 -39.3609,0.3414 -58.8314,1.0187 -39.6125,0 -79.2249,0 -118.8374,0 3.3898,-16.1255 17.6685,-27.1248 25.9698,-40.9382 40.595,-56.0091 80.3136,-112.6429 120.8623,-168.68962 15.3545,-22.27364 31.7775,-43.79586 47.0521,-66.11862 -0.031,-17.0114 -14.6316,-27.98805 -22.6894,-41.67477 -34.8795,-50.29443 -70.6821,-99.92663 -105.4881,-150.26846 -19.1741,-27.11428 -37.7006,-54.68311 -57.0897,-81.64896 0,-2.15426 0,-4.30853 0,-6.4628 z"
         fill="#fefefe"
         id="path5482-4"
         style="fill:#000000;stroke-width:2.15427" />
      <path
         d="m -1648.2244,614.37662 c 28.6468,0.89122 57.2719,1.99507 85.4112,7.89238 33.0473,3.77428 63.432,18.55752 92.2591,34.2755 24.1076,14.44136 45.2375,33.61522 64.4838,53.93385 9.1901,10.46824 -5.4312,19.98688 -12.1206,27.16512 -24.2474,22.29841 -48.1016,45.10911 -72.7908,66.94069 -8.2599,9.20519 -18.1224,-3.57049 -24.0725,-9.64337 -12.7213,-13.98552 -29.6636,-23.41777 -45.6386,-33.05339 -21.7357,-9.82109 -45.315,-15.66132 -69.283,-13.94609 -25.9421,-1.02198 -52.2767,4.56361 -75.5446,15.99782 -15.6673,11.10698 -32.1148,21.34601 -43.562,37.148 -8.8393,13.24014 -16.2749,27.99322 -22.7491,42.53928 -7.1979,22.73249 -11.6228,46.25259 -9.9576,70.18307 1.989,21.94037 6.9759,43.67393 16.0994,63.84263 10.9617,22.07092 24.4285,44.81119 47.2341,56.28249 15.5348,10.7913 32.4396,20.0372 51.5838,21.7846 24.7136,6.3592 50.561,6.1528 75.1304,-0.6735 27.9551,-3.5349 50.5476,-21.9298 72.7732,-37.8207 6.9009,-4.8777 11.954,-19.34968 20.0588,-17.97612 19.5784,11.76142 34.5689,30.06972 51.8267,44.97622 14.6267,13.4657 29.8203,26.3079 44.445,39.7822 -0.2971,15.2436 -15.9063,22.2922 -24.4859,33.1032 -14.2403,15.0107 -32.4075,25.7549 -49.4626,37.1781 -31.6779,16.0108 -65.1988,28.9739 -100.4786,34.0532 -31.4263,5.2454 -63.5619,3.3436 -95.2564,2.8559 -21.4422,-1.6232 -42.5563,-4.9124 -62.9168,-12.0279 -28.2183,-7.8827 -54.7994,-21.2362 -80.1168,-35.8057 -32.182,-23.5203 -62.9533,-50.3326 -83.0942,-85.2416 -12.0886,-18.1717 -20.407,-38.7945 -27.6909,-59.26053 -9.3642,-29.6003 -16.9551,-60.20105 -15.0651,-91.49418 -1.4081,-30.78171 3.1242,-61.52313 12.9847,-90.69667 6.3328,-22.55951 16.3926,-44.1692 27.9831,-64.48245 16.0596,-28.10826 39.1127,-51.26795 62.8795,-72.82744 22.6396,-17.20335 48.0943,-30.12616 73.6446,-42.28637 21.2788,-7.69268 42.7799,-14.47776 65.4066,-16.66693 16.5766,-3.05928 33.2648,-4.95568 50.0821,-6.03131 z"
         fill="#fefefe"
         id="path5484-9"
         style="fill:#000000;stroke-width:2.15427" />
      <path
         d="m -1839.9544,1264.9659 h 79.8796 l 88.1534,156.2169 93.9542,-156.7143 76.2331,0.4974 2.0351,292.6024 -77.5537,0.1295 0.053,-146.592 -68.6042,108.3644 c 0,0 -5.6802,10.1589 -25.7317,10.4707 -17.0592,0.2654 -24.0824,-10.7712 -24.0824,-10.7712 l -64.5089,-108.0708 -0.013,146.6678 -79.8667,0.037 z"
         fill="#fefefe"
         id="path5488-1"
         sodipodi:nodetypes="cccccccccsccccc"
         style="fill:#000000;stroke-width:2.15427" />
      <path
         id="path5490-5"
         d="m -2229.877,1264.9666 -2.1543,40.9311 v 247.7409 l 2.1543,2.1543 68.9366,2.1543 12.9256,-2.1543 -0.087,-77.987 45.3263,-0.012 47.394,79.9778 92.4952,0.1758 -60.1812,-94.7879 c 0,0 56.726,-35.9707 56.011,-92.6335 -0.715,-56.6629 -43.6464,-105.2732 -112.022,-105.5592 z m 81.8622,64.628 h 49.5482 c 0,0 48.3285,-4.6221 47.9787,40.577 -0.2844,36.7567 -32.8988,43.4395 -32.8988,43.4395 h -64.6281 z"
         style="fill:#000000;stroke-width:2.15427"
         sodipodi:nodetypes="ccccccccccczccccsccc" />
      <path
         id="path5492-9"
         d="m -1025.6405,1264.9666 -129.5224,292.8172 c 28.7016,-0.5079 86.1476,0.034 86.1476,0.034 l 21.8321,-58.0364 h 124.94758 l 23.69696,58.1652 84.0165,-0.1936 -129.25616,-292.787 z m 40.93839,77.1559 34.46099,97.3399 h -71.09088 z"
         sodipodi:nodetypes="ccccccccccccc"
         style="stroke-width:2.15427" />
      <path
         d="m -1273.3816,1258.5031 c 47.7244,-2.3718 133.5647,23.697 133.5647,23.697 l -23.697,62.4738 c 0,0 -65.2828,-29.293 -99.4169,-27.5201 -13.7903,0.7163 -37.6134,7.7513 -41.827,22.5374 -3.6502,12.8095 2.1745,24.279 11.4455,27.9066 25.018,9.7889 60.2572,8.7781 84.5588,15.8529 59.2366,17.2454 86.6294,45.7923 81.8622,99.0964 -4.1067,45.9188 -67.0176,72.8318 -116.1327,75.1118 -53.6102,2.4887 -110.6752,-14.2619 -135.9168,-25.5636 l 23.697,-60.3195 c 0,0 61.9475,33.0827 114.9493,27.2324 12.3431,-1.3624 33.5002,-7.2744 33.9829,-22.858 0.4231,-13.6627 -4.2161,-20.3009 -15.047,-24.7576 -36.3548,-14.9592 -79.0194,-12.1058 -114.4968,-29.165 -20.591,-9.9012 -36.2825,-27.5541 -38.7769,-49.5482 -8.4236,-74.2771 31.3461,-110.7022 101.2507,-114.1763 z"
         fill="#fefefe"
         id="path5494-8"
         sodipodi:nodetypes="sccssssssccssssss"
         style="fill:#000000;stroke-width:2.15427" />
      <path
         d="m -2469.001,1264.9659 h 228.3525 v 64.6484 l -144.3339,-0.02 v 62.5113 l 129.1614,-0.037 c 0.1135,21.6644 0,64.6853 0,64.6853 l -129.1614,-0.057 -0.1289,101.094 h -83.8232 z"
         fill="#fefefe"
         id="path5496-3"
         sodipodi:nodetypes="ccccccccccc"
         style="fill:#000000;stroke-width:2.15427" />
      <path
         d="m -1951.9764,1264.9659 h 84.0801 l -0.1008,292.7418 h -84.1437 c 0,0 0.1644,-292.7418 0.1644,-292.7418 z"
         fill="#fefefe"
         id="path5504-0"
         sodipodi:nodetypes="ccccc"
         style="fill:#000000;stroke-width:2.15427" />
    </g>
  </g>
  <g
     id="g11364"
     transform="matrix(0.8153416,0,0,0.8153416,12656.12,995.24774)">
    <path
       d="m -5859.7669,-252.63384 h 70.8245 l -0.085,246.590073 h -70.8781 c -2e-4,0 0.1379,-246.590073 0.1379,-246.590073 z"
       fill="#fefefe"
       id="path5504-6-8"
       sodipodi:nodetypes="ccccc"
       style="fill:#000000;stroke-width:1.81465" />
    <path
       id="path5474-9"
       style="fill:#000000;stroke-width:1.81465"
       d="m -5815.9076,-1330.8593 -11.2621,22.5295 -16.3335,25.4046 -12.7011,14.5171 -23.5909,21.7748 -21.7747,14.5175 -29.0347,14.5172 -23.5908,7.2574 -39.922,5.4461 h -59.883 l -32.6647,-5.4461 -25.4047,-9.0711 -29.0346,-16.3336 -18.1446,-14.5174 -10.8875,-12.7009 -14.5172,-18.1473 -12.7038,-23.5911 -6.0095,-24.0462 a 870.73667,870.73667 0 0 0 -327.2648,151.7615 l 13.8986,26.5315 23.5885,34.4783 19.9609,27.2185 23.5911,25.4046 14.5172,12.7037 19.961,18.1446 25.4046,18.1473 30.8484,19.96103 45.3682,23.59087 48.9931,19.9611 65.329,18.14721 48.9957,9.07116 38.1057,3.62994 h 116.1385 l 23.5886,-1.81371 43.5519,-5.44365 45.3656,-9.07361 50.8118,-14.51734 52.6231,-19.9611 30.8484,-14.51726 41.7383,-21.77724 25.4047,-16.3309 27.2207,-19.9611 32.6622,-23.591 18.1473,-16.331 12.7009,-14.5172 12.7037,-12.7011 25.4047,-30.8509 21.7747,-29.0321 16.2781,-27.9051 a 870.73667,870.73667 0 0 0 -300.801,-132.5375 z" />
    <path
       id="path5476-4"
       style="stroke-width:1.81465"
       d="m -5375.5935,-1078.7295 c -2.2859,2.0458 -4.0917,4.5366 -4.6762,8.1052 -10.3693,10.4885 -2.9915,26.1508 -7.4009,37.7636 -8.0931,9.2995 -25.8233,4.5826 -27.5757,20.3182 -12.7749,6.8489 -8.5326,20.74547 -9.0735,32.66199 -6.1205,13.39788 -26.5975,2.33423 -32.0181,17.00777 -13.4449,7.55798 -9.3179,18.2812 -9.1389,30.00823 -6.0572,13.41281 -19.3071,8.86371 -30.4536,10.85958 -6.7883,7.97937 -23.4372,14.80631 -17.3071,27.41205 2.0121,13.38177 -9.3463,21.35803 -21.7746,18.14741 -11.2383,-4.66602 -25.8072,6.46166 -28.7227,16.89947 7.1035,11.04176 -2.7464,25.85441 -16.3311,21.20874 -11.6747,-4.2047 -22.01,-2.27161 -32.6243,6.68636 -15.6985,4.18147 -6.118,19.95785 -11.3829,28.44347 -12.1322,8.29381 -22.565,4.57822 -32.6068,-1.65524 -9.4514,5.40309 -27.3955,9.22873 -27.1328,21.71182 4.0432,14.74069 -16.4741,13.0644 -25.4046,21.0276 -37.9874,24.55551 -70.6798,58.25993 -89.0158,99.99865 -16.0738,28.82683 -19.7854,62.6874 -23.4928,94.91722 -2.1084,31.30219 5.2613,62.13467 12.9677,92.19036 13.3989,39.91827 38.6806,75.75292 71.3388,102.33812 34.7125,29.7131 78.6116,47.7714 123.2701,55.86814 33.6455,4.09747 68.2424,4.95741 101.7521,-0.53078 60.5466,-9.82375 118.5046,-40.58734 156.4679,-89.43581 28.6879,-35.77874 47.1834,-80.59715 48.87,-126.68374 1.6145,-110.42106 0.2314,-220.9848 0.6916,-331.46064 v -130.21815 a 870.73667,870.73667 0 0 0 -69.2258,-83.58962 z m -188.5789,384.33778 a 133.65667,132.21082 0 0 1 133.6542,132.21296 133.65667,132.21082 0 0 1 -133.6542,132.20792 133.65667,132.21082 0 0 1 -133.6546,-132.20792 133.65667,132.21082 0 0 1 133.6546,-132.21296 z" />
    <path
       d="m -6694.5691,-791.15775 c 48.3902,0 96.7808,0 145.1713,0 13.3381,14.24768 22.2233,32.15583 34.1963,47.59553 19.8353,27.9894 38.0218,57.33326 59.4054,84.11355 5.2824,-3.05694 10.0118,-13.16158 15.0812,-18.93215 24.5004,-36.1395 48.5048,-72.6971 73.7379,-108.28948 5.8639,-8.36769 17.4356,-2.95551 26.131,-4.48745 38.7563,0 77.5128,0 116.269,0 0.9318,9.77386 -9.172,16.06903 -13.1876,24.28338 -47.5881,67.36551 -95.3117,134.66024 -144.6861,200.73225 12.0523,21.59914 28.5567,40.5019 42.4377,60.9934 17.6101,24.80197 34.4226,50.15687 53.1745,74.11959 23.3541,34.93077 49.1878,68.10388 73.1494,102.60513 2.3658,10.49315 -12.8738,3.38104 -18.9381,5.44391 -43.2875,0 -86.5749,0 -129.8624,0 -26.9965,-35.73302 -49.8691,-74.32011 -75.3117,-111.15263 -7.4107,-10.25199 -12.9757,-22.01704 -22.6791,-30.38945 -29.681,47.45109 -61.3902,93.68689 -91.6885,140.68395 -15.8089,2.00028 -33.1555,0.28761 -49.5565,0.85813 -33.3675,0 -66.7348,0 -100.1023,0 2.8555,-13.5833 14.883,-22.84852 21.8757,-34.48417 34.1949,-47.17908 67.6517,-94.88437 101.8078,-142.0952 12.9339,-18.76211 26.7677,-36.8913 39.6343,-55.69481 -0.028,-14.3295 -12.3249,-23.57564 -19.1125,-35.1046 -29.3805,-42.36538 -59.5387,-84.17291 -88.8574,-126.57819 -16.1513,-22.83963 -31.757,-46.06215 -48.0893,-68.77674 0,-1.81466 0,-3.62929 0,-5.44395 z"
       fill="#fefefe"
       id="path5482-9"
       style="fill:#000000;stroke-width:1.81465" />
    <path
       d="m -6008.6345,-800.23094 c 24.1306,0.75071 48.2428,1.68052 71.9458,6.64811 27.8374,3.17926 53.4318,15.63188 77.7143,28.87187 20.3069,12.16463 38.1057,28.31567 54.3179,45.43102 7.741,8.81789 -4.5752,16.83588 -10.2098,22.88246 -20.4248,18.78298 -40.5184,37.9975 -61.3154,56.38728 -6.9576,7.75395 -15.2653,-3.0076 -20.2772,-8.12308 -10.7159,-11.78066 -24.9871,-19.72588 -38.4436,-27.84241 -18.309,-8.27277 -38.171,-13.19226 -58.3603,-11.74744 -21.8524,-0.86088 -44.0352,3.84413 -63.6347,13.47571 -13.1974,9.35593 -27.052,17.98074 -36.6945,31.2915 -7.4457,11.15279 -13.7092,23.58001 -19.1625,35.83284 -6.0632,19.14863 -9.7905,38.96071 -8.3878,59.11848 1.6755,18.48141 5.8762,36.78861 13.5613,53.77765 9.2336,18.59138 20.5771,37.74654 39.7875,47.40935 13.0858,9.09009 27.3254,16.87834 43.4514,18.3502 20.8175,5.35664 42.59,5.1828 63.2859,-0.56726 23.548,-2.97765 42.5787,-18.47251 61.3004,-31.85822 5.8128,-4.10871 10.0694,-16.29911 16.8963,-15.14209 16.4919,9.90721 29.1191,25.32913 43.6563,37.88555 12.3206,11.34278 25.119,22.16041 37.4379,33.51045 -0.2501,12.84041 -13.3986,18.77772 -20.6256,27.88432 -11.9953,12.64425 -27.2984,21.6946 -41.6647,31.31692 -26.6838,13.48661 -54.92,24.40602 -84.6378,28.6846 -26.4719,4.41846 -53.5412,2.8165 -80.2389,2.40567 -18.0617,-1.36734 -35.8472,-4.13794 -52.9978,-10.13168 -23.7697,-6.63997 -46.1602,-17.88821 -67.4862,-30.1608 -27.1083,-19.81228 -53.0284,-42.3975 -69.9941,-71.80303 -10.1829,-15.3069 -17.1898,-32.67845 -23.3254,-49.91792 -7.888,-24.93373 -14.282,-50.71017 -12.6899,-77.06984 -1.1862,-25.92888 2.6316,-51.82382 10.9376,-76.39807 5.3345,-19.00292 13.8082,-37.20578 23.5714,-54.31659 13.5278,-23.6769 32.9464,-43.18541 52.9663,-61.34597 19.0704,-14.49118 40.5121,-25.37668 62.0343,-35.61979 17.9241,-6.47991 36.0355,-12.1953 55.0952,-14.03935 13.9632,-2.57695 28.0203,-4.1744 42.1864,-5.08044 z"
       fill="#fefefe"
       id="path5484-5"
       style="fill:#000000;stroke-width:1.81465" />
    <path
       d="m -6170.1376,-252.20904 h 67.2863 l 74.2557,131.58885 79.1421,-132.00784 64.2147,0.41899 1.7144,246.472744 -65.3271,0.109058 0.043,-123.481292 -57.7884,91.280379 c 0,0 -4.7847,8.557382 -21.675,8.820015 -14.3698,0.223527 -20.2858,-9.073139 -20.2858,-9.073139 l -54.3388,-91.033085 -0.011,123.545212 -67.2755,0.03099 z"
       fill="#fefefe"
       id="path5488-17"
       sodipodi:nodetypes="cccccccccsccccc"
       style="fill:#000000;stroke-width:1.81465" />
    <path
       id="path5490-4"
       d="m -6498.5878,-252.20848 -1.8146,34.47819 V -9.0464396 l 1.8146,1.8146442 58.0687,1.8146424 10.8878,-1.8146424 -0.073,-65.6921036 38.1805,-0.0103 39.9222,67.369015 77.913,0.148076 -50.6934,-79.844253 c 0,0 47.7829,-30.299809 47.1808,-78.029619 -0.6024,-47.72979 -36.7656,-88.67651 -94.3615,-88.91745 z m 68.9565,54.43926 h 41.7368 c 0,0 40.7093,-3.89341 40.4146,34.17984 -0.2396,30.96189 -27.7121,36.5912 -27.7121,36.5912 h -54.4393 z"
       style="fill:#000000;stroke-width:1.81465"
       sodipodi:nodetypes="ccccccccccczccccsccc" />
    <path
       id="path5492-5"
       d="m -5484.2029,-252.20848 -109.1027,246.6537 c 24.1767,-0.427854 72.5662,0.02906 72.5662,0.02906 l 18.3903,-48.886784 h 105.2492 l 19.961,48.995335 70.771,-0.163138 -108.8785,-246.628203 z m 34.4844,64.99211 29.0282,81.9939 h -59.8833 z"
       sodipodi:nodetypes="ccccccccccccc"
       style="stroke-width:1.81465" />
    <path
       d="m -5692.8868,-257.65295 c 40.2006,-1.99788 112.5079,19.96105 112.5079,19.96105 l -19.9612,52.62462 c 0,0 -54.9908,-24.67487 -83.7435,-23.18145 -11.6161,0.60334 -31.6836,6.52933 -35.2327,18.98431 -3.0747,10.79004 1.8317,20.45138 9.6411,23.50705 21.0736,8.24568 50.7574,7.39417 71.2278,13.35366 49.8977,14.52663 72.972,38.57298 68.9563,83.473527 -3.4592,38.679545 -56.4521,61.3496541 -97.8239,63.2702 -45.1585,2.096329 -93.227,-12.013493 -114.4891,-21.533438 l 19.9609,-50.809975 c 0,0 52.1814,27.867188 96.8273,22.93918 10.3972,-1.147635 28.2189,-6.127556 28.6254,-19.254351 0.3563,-11.508733 -3.5514,-17.100447 -12.6747,-20.854501 -30.6234,-12.600852 -66.5618,-10.197312 -96.4462,-24.567102 -17.3446,-8.34017 -30.5625,-23.2101 -32.6635,-41.73676 -7.0955,-62.56703 26.4043,-93.24964 85.2881,-96.17602 z"
       fill="#fefefe"
       id="path5494-1"
       sodipodi:nodetypes="sccssssssccssssss"
       style="fill:#000000;stroke-width:1.81465" />
    <path
       d="m -6700.0132,-252.20904 h 192.3521 v 54.45635 l -121.5791,-0.0172 v 52.65624 l 108.7988,-0.0316 c 0.096,18.24898 0,54.48745 0,54.48745 l -108.7988,-0.04826 -0.1086,85.156253 h -70.6082 z"
       fill="#fefefe"
       id="path5496-4"
       sodipodi:nodetypes="ccccccccccc"
       style="fill:#000000;stroke-width:1.81465" />
    <path
       id="path5498-6"
       style="fill:#000000;stroke-width:1.81465"
       d="m -5933.0899,-1349.3965 -13.8456,13.8456 -19.961,12.7036 -21.7773,9.0737 -27.2185,5.4438 h -25.4046 l -10.8898,-1.8163 -23.5885,-7.2574 -16.3336,-10.8874 -7.2573,-3.63 v -3.63 l -5.4438,-5.4437 -2.4928,-3.7381 a 870.73667,870.73667 0 0 0 -53.7978,4.7066 l 1.8515,6.2914 9.0735,18.1449 14.5148,16.3335 18.1473,14.5148 23.5909,12.7035 21.7748,7.2575 32.6645,3.6299 h 23.5909 l 21.7749,-1.8136 32.6645,-7.2599 41.7357,-19.961 23.591,-18.1447 19.9609,-23.5911 4.8676,-9.7352 a 870.73667,870.73667 0 0 0 -61.7922,-7.7404 z" />
    <path
       d="m -6264.4989,-252.20904 h 70.8246 l -0.084,246.590135 h -70.8782 c 0,0 0.1385,-246.590135 0.1385,-246.590135 z"
       fill="#fefefe"
       id="path5504-3"
       sodipodi:nodetypes="ccccc"
       style="fill:#000000;stroke-width:1.81465" />
    <path
       id="path9930"
       style="fill:none;stroke:#000000;stroke-width:42.595;stroke-linecap:round;stroke-linejoin:round;paint-order:markers stroke fill"
       d="m -5029.2596,-531.34123 a 959.8864,959.8864 0 0 1 -959.8863,959.88636 959.8864,959.8864 0 0 1 -959.8864,-959.88636 959.8864,959.8864 0 0 1 959.8864,-959.88637 959.8864,959.8864 0 0 1 959.8863,959.88637 z" />
  </g>
  <path
     id="rect9552-51"
     style="fill:#000000;fill-opacity:1;stroke:none;stroke-width:40.5704;stroke-linecap:round;stroke-linejoin:round;paint-order:markers stroke fill"
     d="m 2210.5599,0.99056566 c -3.5702,0 -6.4448,2.87466564 -6.4448,6.44477524 V 1594.5458 c 0,3.5701 2.8746,6.4448 6.4448,6.4448 h 1587.1104 c 3.5701,0 6.4447,-2.8747 6.4447,-6.4448 V 7.4353409 c 0,-3.5701096 -2.8746,-6.44477524 -6.4447,-6.44477524 z M 2461.4782,99.003979 h 350.0543 l -6.8568,27.429891 -1.8199,10.92442 v 32.77598 l 7.2821,29.13351 12.7469,23.66868 14.5668,18.20917 10.9244,12.74688 18.2065,14.5668 29.1336,16.38663 25.4911,9.10459 32.776,5.46221 h 60.0869 l 40.0579,-5.46221 23.6714,-7.28475 29.1336,-14.56672 21.8488,-14.5668 23.6714,-21.84884 12.7468,-14.5668 16.3867,-25.49122 12.7443,-25.49113 7.2847,-29.1336 1.8198,-12.74688 v -20.02901 l -2.0495,-9.220801 h 339.3702 l 1.3523,12.863181 v 40.05793 l -3.6397,36.41827 -9.1046,36.41564 -12.7469,36.41564 -12.7443,29.13351 -25.4938,43.70031 -21.8489,29.1336 -25.4912,30.95343 -12.7469,12.74426 -12.7443,14.56679 -18.2091,16.38926 -32.7733,23.66868 -27.3136,20.02901 -25.4912,16.38925 -41.8779,21.84884 -30.9561,14.5668 -52.8022,20.02901 -50.985,14.56672 -45.5202,9.10458 -43.6977,5.46221 -23.6713,1.81984 h -116.5342 l -38.2355,-3.63967 -49.1626,-9.10459 -65.5492,-18.20909 -49.1625,-20.02901 -45.5201,-23.67138 -30.9561,-20.02893 -25.4912,-18.20647 -20.029,-18.20917 -14.5668,-12.74688 -23.6713,-25.49122 -20.029,-27.31105 -23.6687,-34.59581 -20.029,-38.2381 -9.1046,-30.95343 -9.1046,-43.70031 -1.8198,-14.5668 v -67.36899 l 7.282,-41.88047 z m 383.7177,0 h 40.8477 l -1.252,3.758591 v 23.6713 l 7.2847,20.02901 10.9244,16.38663 5.4622,5.46484 v 3.63975 l 7.2821,3.64238 16.3893,10.92442 23.6687,7.28467 10.927,1.81983 h 25.4913 l 27.311,-5.46221 21.8515,-9.1045 20.029,-12.74434 18.2065,-18.20909 9.1046,-14.5668 5.4622,-20.02901 V 99.003979 h 58.2671 v 14.685631 l -5.4622,29.1309 -14.5668,29.13359 -20.029,23.6713 -23.6713,18.20918 -41.8779,20.029 -32.7759,7.28205 -21.8488,1.82246 h -23.6714 l -32.7759,-3.64229 -21.8489,-7.28476 -23.6713,-12.74425 -18.2064,-14.5668 -14.5668,-16.38663 -9.1046,-18.20909 -9.1046,-30.95344 v -20.029 z m 855.3247,196.769001 c 1.214,1.21399 2.4291,2.42586 3.6423,3.63976 v 341.13197 c -0.4614,110.85157 0.9253,221.79343 -0.6946,332.59007 -1.6923,46.24292 -20.2505,91.21732 -49.0359,127.11792 -38.092,49.0143 -96.2485,79.8816 -157.0015,89.7382 -33.6232,5.5068 -68.3375,4.6449 -102.0968,0.5335 -44.8107,-8.1243 -88.8595,-26.2446 -123.6895,-56.0589 -32.7696,-26.6758 -58.1374,-62.6343 -71.582,-102.6886 -7.7327,-30.1574 -15.1284,-61.09477 -13.0137,-92.50361 3.7201,-32.33967 7.4452,-66.315 23.5737,-95.24011 18.3985,-41.88022 51.2015,-75.69851 89.3182,-100.33775 8.9613,-7.98966 29.5481,-6.30777 25.4912,-21.09872 -0.2628,-12.52492 17.7434,-16.3666 27.2265,-21.78807 10.0759,6.25468 20.5445,9.98344 32.7178,1.66136 5.2829,-8.51387 -4.331,-24.34613 11.421,-28.54186 10.6505,-8.98846 21.0198,-10.92789 32.7336,-6.70891 13.6311,4.66154 23.5172,-10.20159 16.3894,-21.28094 2.9254,-10.47342 17.5433,-21.63644 28.8191,-16.95454 12.4706,3.22155 23.8678,-4.78189 21.8489,-18.20917 -6.1505,-12.64807 10.555,-19.49999 17.3666,-27.50647 11.1844,-2.00274 24.48,2.56329 30.5571,-10.89535 -0.1788,-11.76685 -4.3193,-22.52983 9.1706,-30.11354 5.4392,-14.72282 25.985,-3.6193 32.1262,-17.0628 0.5428,-11.95644 -3.714,-25.90361 9.1046,-32.77589 1.7582,-15.78932 19.5496,-11.05704 27.6703,-20.38823 4.4244,-11.65164 -2.9773,-27.36523 7.4273,-37.88944 2.6204,-15.99353 27.683,-12.21634 26.8092,-29.12033 -8.0578,-13.12663 0.259,-29.47185 9.2816,-39.43991 17.3285,-6.10939 1.5657,-27.37825 10.618,-38.5947 3.5649,-13.86856 16.1188,-20.23777 23.8008,-31.21494 z m -701.0173,409.68435 c 24.2128,0.75326 48.409,1.68553 72.1921,6.66926 27.9321,3.1901 53.614,15.68545 77.9791,28.9698 20.3762,12.20611 38.236,28.41262 54.5033,45.58624 7.7676,8.84798 -4.5916,16.89435 -10.2456,22.96081 -20.4943,18.84697 -40.6561,38.12698 -61.5238,56.5794 -6.9814,7.78039 -15.3169,-3.01818 -20.346,-8.1511 -10.7523,-11.82077 -25.0739,-19.79288 -38.5762,-27.93704 -18.3714,-8.30096 -38.2995,-13.23787 -58.5577,-11.78815 -21.9259,-0.86381 -44.1844,3.85909 -63.8508,13.52346 -13.2422,9.38782 -27.1443,18.04109 -36.8197,31.3972 -7.4711,11.19083 -13.7566,23.66149 -19.2287,35.95601 -6.0838,19.21388 -9.8227,39.09194 -8.4152,59.31839 1.6811,18.54438 5.894,36.91482 13.6054,53.96179 9.265,18.6546 20.6476,37.8741 39.9232,47.5698 13.1303,9.121 27.419,16.9363 43.6,18.4125 20.8876,5.3749 42.7357,5.2019 63.5022,-0.5678 23.6281,-2.9878 42.7225,-18.5365 61.508,-31.9677 5.8327,-4.1227 10.1049,-16.3538 16.9544,-15.1928 16.548,9.9409 29.2195,25.4144 43.8061,38.0136 12.3627,11.3814 25.2035,22.2377 37.5645,33.6264 -0.2511,12.8842 -13.4437,18.8417 -20.6945,27.9793 -12.0362,12.6873 -27.3914,21.7685 -41.8066,31.4236 -26.774,13.5326 -55.1093,24.4899 -84.9284,28.7822 -26.562,4.4335 -53.7235,2.8238 -80.5122,2.4116 -18.1225,-1.372 -35.9683,-4.1496 -53.1773,-10.1637 -23.8498,-6.6626 -46.3163,-17.9497 -67.715,-30.2641 -27.2008,-19.8798 -53.2114,-42.5445 -70.2349,-72.0494 -10.2175,-15.359 -17.248,-32.7888 -23.4045,-50.087 -7.9148,-25.0187 -14.3285,-50.88264 -12.7311,-77.33208 -1.1901,-26.01644 2.6404,-52.00118 10.9746,-76.65842 5.3526,-19.06766 13.8537,-37.33163 23.6502,-54.50068 13.5738,-23.75684 33.0602,-43.33307 53.1483,-61.55551 19.1354,-14.54051 40.6501,-25.46409 62.2449,-35.74209 17.9852,-6.50199 36.158,-12.23569 55.2825,-14.08604 14.0108,-2.58577 28.1152,-4.18855 42.3294,-5.09775 z m -347.5187,8.7823 c 4.729,0.11605 9.8134,1.09084 14.1759,0.32229 h 116.6663 c 0.9349,9.80713 -9.2038,16.12368 -13.2329,24.36598 -47.7494,67.59415 -95.6374,135.11877 -145.1791,201.4151 12.0932,21.6727 28.6548,40.64037 42.5831,61.2016 17.6691,24.8865 34.5386,50.3276 53.3543,74.3711 23.4329,35.0498 49.3557,68.3365 73.3991,102.9553 2.3738,10.529 -12.9192,3.3923 -19.0042,5.4622 h -130.3033 c -27.0884,-35.8547 -50.0386,-74.5736 -75.5677,-111.5316 -7.436,-10.286 -13.0211,-22.0929 -22.7574,-30.4938 -29.7814,47.6127 -61.6003,94.008 -92.0019,141.1643 -15.8626,2.0071 -33.2683,0.2887 -49.725,0.8611 h -100.4435 c 2.8652,-13.6295 14.9363,-22.9257 21.9518,-34.601 34.3116,-47.339 67.8834,-95.2093 102.155,-142.5801 12.9779,-18.82608 26.8572,-37.01717 39.7675,-55.88468 -0.026,-14.37831 -12.3661,-23.65617 -19.1758,-35.22439 -29.4807,-42.50881 -59.7413,-84.46065 -89.1599,-127.0096 -16.2054,-22.91737 -31.8659,-46.21737 -48.2539,-69.0093 v -5.46221 h 145.6651 c 13.3836,14.29616 22.2994,32.26503 34.3132,47.75734 19.9029,28.08477 38.1534,57.52865 59.6089,84.40021 5.3003,-3.0674 10.046,-13.20873 15.132,-18.99897 24.5837,-36.26172 48.67,-72.9442 73.9881,-108.65781 2.9419,-4.1981 7.3162,-4.93826 12.0443,-4.82306 z m 793.4972,97.41652 a 134.11198,132.66121 0 0 0 -134.1094,132.66469 134.11198,132.66121 0 0 0 134.1094,132.65936 134.11198,132.66121 0 0 0 134.1094,-132.65936 134.11198,132.66121 0 0 0 -134.1094,-132.66469 z m -121.2384,438.12055 c 41.2079,0.7689 104.9759,20.1347 104.9759,20.1347 l -20.029,52.8049 c 0,0 -55.1798,-24.7605 -84.0303,-23.262 -11.6558,0.6055 -31.7898,6.5516 -35.3512,19.0491 -3.0852,10.8268 1.8364,20.5234 9.6724,23.5895 21.1456,8.2737 50.9309,7.4169 71.471,13.3967 50.0676,14.5761 73.2208,38.7048 69.1915,83.7583 -3.471,38.8111 -56.6458,61.5592 -98.1587,63.4863 -45.312,2.1035 -93.5435,-12.0535 -114.8781,-21.6058 l 20.029,-50.9851 c 0,0 52.3597,27.9637 97.1576,23.019 10.4326,-1.1516 28.3135,-6.1497 28.7215,-19.3212 0.3576,-11.5479 -3.5634,-17.1575 -12.7179,-20.9244 -30.7275,-12.6436 -66.7886,-10.2325 -96.7745,-24.6513 -17.4039,-8.3686 -30.665,-23.288 -32.7733,-41.8778 -7.1198,-62.7801 26.4936,-93.5688 85.5781,-96.5052 2.5211,-0.1253 5.1688,-0.1569 7.916,-0.1057 z m -175.3665,5.1427 v 0 h 71.0642 l -0.084,247.4291 h -71.1198 z m -89.9892,0.01 64.4319,0.42 1.7195,247.313 -65.5492,0.1109 0.045,-123.9035 -57.9844,91.5925 c 0,0 -4.8007,8.5848 -21.7486,8.8483 -14.4183,0.2243 -20.3564,-9.1019 -20.3564,-9.1019 l -54.5218,-91.3441 -0.014,123.9668 -67.5037,0.029 0.045,-247.511 h 67.5142 l 74.5085,132.0387 z m -753.1169,0.42 h 193.0079 v 54.6432 l -121.9938,-0.018 v 52.8365 l 109.1675,-0.031 c 0.096,18.3111 0,54.6723 0,54.6723 l -109.1675,-0.047 -0.1084,85.446 h -70.8503 z m 436.998,0 h 71.0643 l -0.084,247.4319 h -71.1197 z m 852.1446,0 109.2495,247.4688 -71.0114,0.1638 -20.029,-49.1625 h -105.6098 l -18.4521,49.0542 c 0,0 -48.5537,-0.4583 -72.8128,-0.029 l 109.4741,-247.4926 z m -1087.0328,0 h 127.4586 c 57.7917,0.2417 94.0784,41.3286 94.6827,89.2205 0.6044,47.8924 -47.34,78.2935 -47.34,78.2935 l 50.8661,80.116 -78.1798,-0.1479 -40.058,-67.5989 -38.3094,0.011 0.071,65.9163 -10.9244,1.8199 -58.2671,-1.8199 -1.8198,-1.8198 V 1289.943 Z m 112.8258,54.5297 c -1.1164,0.032 -1.7538,0.092 -1.7538,0.092 h -41.8805 v 71.0141 h 54.6247 c 0,0 27.5673,-5.6499 27.8076,-36.7167 0.2588,-33.4277 -30.9835,-34.6153 -38.798,-34.3898 z m 939.6165,10.6815 -30.9587,82.2738 h 60.087 z" />
</svg>
